<svg id="Capa_1" data-name="Capa 1" xmlns="http://www.w3.org/2000/svg" viewBox="0 0 1500 1500"><defs><style>.cls-1{fill:#1860ab;}.cls-2{fill:#1d61aa;}.cls-3{fill:#4a79af;}.cls-4{fill:#8faccc;}.cls-5{fill:#b1c4da;}.cls-6{fill:#d5dde6;}.cls-7{fill:#8ba8cb;}.cls-8{fill:#1f62aa;}.cls-9{fill:#a1b7d3;}.cls-10{fill:#1761ac;}.cls-11{fill:#7d9ec9;}.cls-12{fill:#1860ac;}</style></defs><path class="cls-1" d="M300.11,266.15C317.18,276.67,338.36,280,352,296.92a24.38,24.38,0,0,1,5.81,16.33c.22,23.27.29,46.56,1.08,69.82.51,14.85,2.21,29.67-19.71,31.53,17,12.24,35,16.78,52.7,21.81,17,4.84,32.39,13.41,49.12,18.62,5.77,1.81,6.51,5.58,6.48,10.63-.16,22.35,4,45.79-1.44,66.72-4.78,18.24-7.67,32.72-.63,51.25,5.28,13.89-3.81,30-9.28,44.22-3.06,8-1.46,9.84,6.4,9.62,10.63-.31,21.28-.08,33.09-.08-3.23-10-6.65-18.57-8.72-27.45-3.3-14.1-9.36-28.07,1.94-42.28,5-6.3,4-16.06-2.35-21.94s-6.57-12.7-6.52-20.17c.09-18.16.39-36.33-.11-54.47-.25-9,3.21-11.08,10.51-7.15,26,14,55.23,19.71,82.23,31.51,30.9,13.5,64.27,21.38,95.11,35,27.09,12,56.55,17.37,82.54,31.91,12.8,7.16,26,5.84,38.46-.93a133.06,133.06,0,0,1,28.35-11c29.76-8.24,57.9-21,87.32-30.4,42.55-13.53,84.2-29.92,126.23-45.09,25.11-12.54,53.35-16.32,78.7-28.65,14.47-7,30.84-10.22,46.39-15,8.31-2.56,16.3-5.57,25.35-13.51-20.73-1.09-18.5-14.25-18.29-26.91.41-25.12.68-50.25.08-75.35-.21-9.06,2-16.57,8.64-22a145.6,145.6,0,0,1,51-26.94c8.45-2.51,12.28.52,12.07,10.46-2.51,117.17-5.76,234.31-12.29,351.34q-4.77,85.65-9.7,171.29c-.34,6-.37,12.13-1.41,18.05-.42,2.42-.8,8-5.72,5.44-12-6.11-24.76-1.26-37-3.3-9.15,4.44-18.92,1.49-28.37,2.35-5.8.52-12-1.45-17.21,2.69C1046.87,829.58,990.92,834,935,839.14c-21.44,2-42.73,5.69-64.08,8.61-4.89,0-5-2.28-2.77-5.69,52.42-16.71,105.25-32.11,158.94-44,30.46-6.77,61.8-9,93.06-7.81,9.63.38,12.86-1.15,13.51-11.22,6.54-100.85,7.84-201.83,8.32-302.83.06-12.13-2.84-13.85-13.63-8.21-3.56,1.86-6.25,4.92-10.36,6.36-25.89,9.11-25.85,9.25-26.81,36.38-2.81,80-5.82,160-8.19,240-.33,11-2.9,15.21-14.77,15.43-42.34.77-81.74,16.37-121.78,27.47-43.5,12.06-85.75,28.64-128.54,43.26-2.9.49-3.86-.78-3.21-3.52,25.68-21.7,53.26-41,81.62-58.71,20.57-12.84,41.58-26.17,65.46-33,11.94-3.43,22.62-10.75,35.56-11.15,6.08-.19,5.59-5.22,5.73-9.31,2.32-66.55,4.33-133.1,4.5-199.69,0-10.77-4.44-10.48-11.69-6.22-2.75,1.62-5.29,3.82-8.24,4.85-32.3,11.32-64.88,21.86-96.94,33.81-42,15.66-84.31,30.54-126.53,45.6-12.51,4.46-20.25,3.75-32.4-.48-30.6-10.66-60.46-23.17-90.89-34.2-45.88-16.64-91-35.27-136.42-53.3-7.2-2.87-11.09-3.47-10.91,6.41q1.83,101.26,3.11,202.53c.09,6.43,2.25,9.06,9.42,10.71,37.61,8.66,71.17,26.31,102.81,48.09,13.27,9.14,27,17.59,40.35,26.68,14.17,9.66,26.2,21.78,39.91,33-15.41-4.73-31.53-7.93-46-14.72-10.12-4.75-20.41-8-30.88-11.18-37.3-11.2-74.19-23.57-112-33.37C476,773.3,452,767.38,427.05,766.42c-9.61-.37-8.66-5.8-8.84-11.94q-3.19-110.29-6.52-220.6c-.34-11.17-2.9-22.63-1.13-33.41,3.28-20-8.74-27.27-23.71-33.39-27.61-11.27-27.78-11.29-27,18.36,2.41,95.88,3,191.81,7.09,287.66.52,12.12,3,16.62,16.52,16.56C446.67,789.42,507.15,805,567,824c17.72,5.62,35.76,10.25,53.64,15.36,4.32,1.24,9.39,1.34,11.33,7.77-9.34,1.26-18.12-.2-26.9-1.89-5.64-1-11.84.65-16.84-3.46-68.91-7.65-138-13.59-207.21-17.23-8.69-.46-17.2-1.08-25.93-3.24a47.26,47.26,0,0,0-28.65,1.5c-13.93,5.41-16.58,3-17.48-12.1C305,744.82,300.7,678.94,297.43,613c-4.87-98.45-11-196.86-11.9-295.47-.11-12.55,1-25.14.38-37.66C285.41,269.12,289,264.14,300.11,266.15Z"/><path class="cls-1" d="M951.37,266.05c-.86,17.61-2,35.22-2.48,52.85-.21,7.23-1.82,11.19-9.6,7-24.67-13.47-51.47-22.18-77.14-33.31-28.84-12.49-57.47-25.8-87.15-36.43-5.53-2-11.14-3.36-15.84-8-4.43-4.38-11.14-4.11-17-1.17-30.56,15.16-63.14,25.76-93.87,40.28-24.55,11.6-51.42,17.47-74.69,31.85-3.09,1.91-7.13,2.22-10.46,3.85-9.21,4.51-10.78.47-10.89-8.11-.43-36.31-1.48-72.61-2.16-108.91-.38-20-.33-40-.81-60-.19-7.76,1.61-10.62,9.4-6.28a511.87,511.87,0,0,1,56.82,36.52c9.75,7.25,14.94,14.93,14.53,27.59-.83,25-.25,50-.25,78.77,24.91-17.16,52.65-20.56,76.14-34.42,28.78-17,58.15-17.67,86.39.12A106.31,106.31,0,0,0,816,258.8c15.88,5.29,30.22,13.71,45.51,20.13,7.45,3.12,9.92,1.09,9.83-6.88-.26-23.28.65-46.58-.24-69.83-.47-12.35,5-20,14.16-26.48,16.16-11.45,31.75-23.77,50-32,2-.92,4.67-1.32,6-2.86,2.4-2.75,5.16-4.38,8.38-3,3.92,1.63,2.17,5.69,2.16,8.63C951.74,186.35,951.53,226.2,951.37,266.05Z"/><path class="cls-1" d="M1092,290.15c0,29.79-.15,59.58.1,89.37.07,7.57-2.51,11.53-9.41,6.8-20-13.77-45-16.37-65.45-29.31-5.69-3.6-7.75-6.6-7.72-12.81.19-34.91.07-69.83.12-104.75,0-5.12.37-10.17,4.36-14.2,17.58-17.76,36.68-32.23,62.92-34.95,11.31-1.17,15.73.78,15.36,13.27C1091.45,232.41,1092,261.29,1092,290.15Z"/><path class="cls-2" d="M759.09,802.13c18.08,3.36,35.06,8.32,41.67,28.44,2,3.53,1.89,6-3,6-33.85-24.82-66.63-19.17-99,5,2-24,14.12-34.59,43.1-39.35C747.58,799,753.33,799.1,759.09,802.13Z"/><path class="cls-3" d="M1102.79,824.87c.69-4.83,4.13-5.5,8.14-5.45,12.48.17,25,.28,37.44.41-5,8.1-13.15,3.78-19.82,4.53C1120.05,825.32,1111.38,824.77,1102.79,824.87Z"/><path class="cls-4" d="M797.72,836.55c3.09-.94,2.41-3.79,3-6,3.11,8.73,8.57,5.6,14,2.76l3.21,3.52C811.13,841.4,804.33,845.57,797.72,836.55Z"/><path class="cls-5" d="M759.09,802.13l-17.24.1C747.55,794.15,753.3,794.3,759.09,802.13Z"/><path class="cls-6" d="M588.18,841.78c6-.83,11.75-.27,16.84,3.46C598.73,847.35,592,851.48,588.18,841.78Z"/><path class="cls-7" d="M868.19,842.06a5.39,5.39,0,0,0,2.77,5.69c-4.4,3.53-9.31,3-14.66,1.32C861.28,848.25,862.16,841.18,868.19,842.06Z"/><path class="cls-1" d="M409,384.4c-2.59-56.39-2.52-111.73-2-167.09.06-6.51.54-13,.55-19.53,0-7.33,3.17-9.29,10.51-8.62,28,2.53,49.18,17.56,68.63,36.06,4.8,4.57,5.34,10.52,5.33,16.68,0,33-.35,66.1.22,99.14.15,8.95-4.42,11.23-11.22,14.7C458.34,367.32,433.9,374.12,409,384.4Z"/><path class="cls-8" d="M759.06,386c6.55,2.28,15.2,4,13.28,13-2.29,10.79-11.54,13.17-21.66,13.07-9.85-.1-18.06-3.51-19.83-13.51-1.64-9.19,7.14-10.51,13.65-12.77C749.39,383,754.24,382.92,759.06,386Z"/><path class="cls-9" d="M759.06,386l-14.56-.17C749.46,377.37,754.31,377.67,759.06,386Z"/><path class="cls-10" d="M120.78,1014.72V996.18q0-68.32-1.62-119.73h70.92q-1.64,51.4-1.62,119.73v18.54q0,27,6.83,38.23t22.77,11.22q16.59,0,23.26-10.9t6.67-38.55V996.18q0-68.32-1.62-119.73h71.25Q316,927.86,316,996.18v18.54q0,99.24-97.93,99.23-47.82,0-72.55-22.12T120.78,1014.72Z"/><path class="cls-10" d="M345.6,876.45H448.08a182.9,182.9,0,0,1,40.51,4.06A95.47,95.47,0,0,1,520.47,894q14.16,9.43,21.8,26.35t7.65,41q0,43.93-27.66,64.42t-74.18,20.5H415.22q0,29.61,1.3,64.42H345.6q1.62-51.4,1.62-114.52Q347.22,927.86,345.6,876.45Zm69.3,119.73h33.18q32.21,0,32.21-34.82,0-18.86-8-27t-24.24-8.13H414.9Z"/><path class="cls-10" d="M756.51,926.23H692.42q-.33,27.64-.33,69.95,0,63.12,1.63,114.52H622.79q1.62-51.4,1.63-114.52,0-42.3-.33-69.95H560.32V876.45H756.51Z"/><path class="cls-10" d="M892.5,1110.7l-12.36-43.6H815.07l-13,43.6H738q48.15-145.11,71.91-234.25h85.89Q926,990.33,966,1110.7Zm-63.44-92.08h38.39q-10.73-42.29-18.54-83h-1.3Q839.8,977.32,829.06,1018.62Z"/><path class="cls-10" d="M1048.67,926.23v40.66h88.17l-2.61,50.11h-85.56v43.92h107.69v49.78h-177Q981,1059.3,981,996.18q0-68.32-1.63-119.73h177v49.78Z"/><path class="cls-10" d="M1349.94,989v1.3q36.75,10.74,36.76,54.33,0,66.06-102.48,66H1181.41q1.62-51.4,1.62-114.52,0-68.32-1.62-119.73h102.81a281.13,281.13,0,0,1,28.79,1.3,121.93,121.93,0,0,1,25,5.37q12.53,4.07,20.66,10.9t13.18,18.38q5,11.55,5,27.17Q1376.94,975.68,1349.94,989Zm-99.23-63.44v42.29h32.86q23.42,0,23.42-21.47,0-12-5.69-16.43t-17.73-4.39Zm0,135.67h33.51q18.85,0,25.7-5.37t6.83-17.41q0-12.69-6.51-17.41t-26-4.71h-33.51Z"/><path class="cls-11" d="M127.7,1200.78v-3.32q0-12.27-.29-21.49h12.73q-.3,9.22-.3,21.49v3.32c0,3.24.41,5.52,1.23,6.86a4.4,4.4,0,0,0,4.09,2,4.49,4.49,0,0,0,4.17-2q1.2-2,1.2-6.92v-3.32q0-12.27-.29-21.49H163q-.28,9.22-.29,21.49v3.32q0,17.82-17.57,17.81-8.59,0-13-4T127.7,1200.78Z"/><path class="cls-11" d="M179.61,1176l14.77,22.89h.23q-.41-4.44-.4-8.94c0-4.43-.1-9.09-.3-14h11.27q-.28,6.66-.29,21.25,0,14.13.29,20.79H193.62l-14.71-22.36h-.3c.28,2.95.41,5.91.41,8.87q0,3.74.3,13.49H168.05q.28-6.66.29-20.79,0-14.6-.29-21.25Z"/><path class="cls-11" d="M223.4,1218H210.67q.3-9.23.29-20.55,0-12.27-.29-21.49H223.4q-.3,9.22-.29,21.49Q223.11,1208.78,223.4,1218Z"/><path class="cls-11" d="M225.6,1176h13.14q5.31,18.45,7.82,31.41h.24q1.51-7.76,3.23-13.68l5.13-17.73h11q-8.13,25.33-12.31,42H238.21Q233.14,1199,225.6,1176Z"/><path class="cls-11" d="M281.38,1184.9v7.3H297.2l-.46,9H281.38v7.89h19.33V1218H268.94q.3-9.23.3-20.55,0-12.27-.3-21.49h31.77v8.93Z"/><path class="cls-11" d="M340.76,1218H327.62q-.28-4.1-.29-8.23a7.37,7.37,0,0,0-1-4.32c-.64-.86-1.9-1.29-3.77-1.29h-5q.12,8.76.29,13.84H305.2q.3-9.23.3-20.55,0-12.27-.3-21.49h20.09q14.83,0,14.83,11.91,0,5.55-2.45,8.26a9,9,0,0,1-6.42,2.95v.23q8.64.53,8.64,10A41.8,41.8,0,0,0,340.76,1218Zm-23.12-22.77h5.43a4.42,4.42,0,0,0,3.45-1.23,5.78,5.78,0,0,0,1.1-3.91,5.93,5.93,0,0,0-1.08-4,4.21,4.21,0,0,0-3.29-1.2h-5.61Z"/><path class="cls-11" d="M368,1206.21a3.15,3.15,0,0,0-1.28-2.62,8.7,8.7,0,0,0-3.39-1.49c-1.4-.33-2.94-.64-4.61-.94a38.2,38.2,0,0,1-5-1.22,20.82,20.82,0,0,1-4.59-2.08,9.12,9.12,0,0,1-3.38-3.82,13.33,13.33,0,0,1-1.29-6.1,10.63,10.63,0,0,1,4.67-9.34c3.12-2.14,7.51-3.22,13.2-3.22q8.24,0,12.67,2.87t4.44,8.64c0,.78-.08,2-.24,3.62h-11a10.24,10.24,0,0,0,.11-1.7q0-5.37-5.6-5.37c-3.82,0-5.72,1.46-5.72,4.38a3.15,3.15,0,0,0,1.75,2.8,11.55,11.55,0,0,0,4.35,1.43q2.59.39,5.66,1.17a42.67,42.67,0,0,1,5.66,1.87,9.6,9.6,0,0,1,4.35,3.71,11.52,11.52,0,0,1,1.76,6.54q0,6.6-4.7,9.92t-13.4,3.33q-9.87,0-14.28-2.89t-4.41-10q0-.64.12-2.16h10.86a14.23,14.23,0,0,0-.06,1.51q0,5.39,6.77,5.38Q368,1210.48,368,1206.21Z"/><path class="cls-11" d="M397.46,1218H384.73q.28-9.23.29-20.55,0-12.27-.29-21.49h12.73q-.3,9.22-.29,21.49Q397.17,1208.78,397.46,1218Z"/><path class="cls-11" d="M403,1176h18.39q8.88,0,14.1,5.31t5.23,15.71q0,10-5.32,15.5t-14,5.52H403q.29-9.23.29-20.55Q403.24,1185.19,403,1176Zm12.43,33.11h6q6.84,0,6.83-12.09c0-4.13-.55-7.17-1.66-9.14a5.52,5.52,0,0,0-5.17-2.95h-6Z"/><path class="cls-11" d="M468.05,1218l-2.22-7.83H454.16l-2.34,7.83h-11.5q8.64-26,12.9-42h15.42q5.43,20.43,12.61,42Zm-11.38-16.53h6.89q-1.94-7.59-3.33-14.89H460Q458.59,1194.07,456.67,1201.48Z"/><path class="cls-11" d="M483.64,1176H502q8.86,0,14.1,5.31t5.22,15.71q0,10-5.31,15.5T502,1218h-18.4q.3-9.23.29-20.55Q483.93,1185.19,483.64,1176Zm12.44,33.11h6q6.82,0,6.83-12.09c0-4.13-.56-7.17-1.67-9.14a5.52,5.52,0,0,0-5.16-2.95h-6Z"/><path class="cls-11" d="M536.54,1176h18.4a32.57,32.57,0,0,1,7.27.73,17,17,0,0,1,5.72,2.42,11,11,0,0,1,3.91,4.73,17.91,17.91,0,0,1,1.37,7.36q0,7.88-5,11.56t-13.31,3.68H549q0,5.31.23,11.56H536.54q.3-9.23.29-20.55Q536.83,1185.19,536.54,1176ZM549,1197.46h6q5.77,0,5.78-6.25,0-3.39-1.43-4.85a5.88,5.88,0,0,0-4.35-1.46h-6Z"/><path class="cls-11" d="M595.17,1175.38q19.38,0,19.38,21.61,0,10.68-5.25,16.14t-14.13,5.46q-19.39,0-19.39-21.6,0-10.74,5.26-16.18T595.17,1175.38Zm0,8.94a5.58,5.58,0,0,0-5.2,3q-1.69,3-1.69,9.67,0,7.29,1.63,10a5.69,5.69,0,0,0,5.26,2.69,5.52,5.52,0,0,0,5.16-3c1.11-2,1.67-5.21,1.67-9.72q0-7.24-1.61-10A5.59,5.59,0,0,0,595.17,1184.32Z"/><path class="cls-11" d="M654.37,1218H641.24q-.3-4.1-.3-8.23a7.37,7.37,0,0,0-1-4.32c-.64-.86-1.9-1.29-3.77-1.29h-5q.12,8.76.29,13.84H618.81q.3-9.23.3-20.55,0-12.27-.3-21.49H638.9q14.83,0,14.83,11.91,0,5.55-2.45,8.26a9,9,0,0,1-6.42,2.95v.23q8.64.53,8.64,10A41.8,41.8,0,0,0,654.37,1218Zm-23.12-22.77h5.43a4.42,4.42,0,0,0,3.45-1.23,5.72,5.72,0,0,0,1.11-3.91,5.93,5.93,0,0,0-1.08-4,4.23,4.23,0,0,0-3.3-1.2h-5.61Z"/><path class="cls-11" d="M688.47,1209.08V1218H658.64q.29-9.23.29-20.55,0-12.27-.29-21.49h12.73q-.3,9.22-.3,21.49,0,7.07.06,11.62Z"/><path class="cls-11" d="M704.53,1218H691.8q.3-9.23.29-20.55,0-12.27-.29-21.49h12.73q-.3,9.22-.29,21.49Q704.24,1208.78,704.53,1218Z"/><path class="cls-11" d="M743.3,1184.9H731.8q-.06,5-.06,12.56,0,11.32.29,20.55H719.3q.3-9.23.29-20.55,0-7.59-.05-12.56H708.09V1176H743.3Z"/><path class="cls-11" d="M759.3,1184.9v7.3h15.82l-.46,9H759.3v7.89h19.33V1218H746.86q.3-9.23.29-20.55,0-12.27-.29-21.49h31.77v8.93Zm.93-11.85-2.92-4.61,12.09-8.76,4,6.36Z"/><path class="cls-11" d="M781.25,1197q0-10.63,5.2-16.12t14-5.49q17.93,0,17.92,14.6c0,1.33-.06,2.59-.17,3.8h-11c0-.39.06-1,.06-1.76q0-7.69-6.48-7.7a5.66,5.66,0,0,0-5.23,3q-1.72,2.94-1.72,9.72c0,4.51.57,7.76,1.72,9.72a5.66,5.66,0,0,0,5.23,3q6.48,0,6.48-7.77c0-.74,0-1.3-.06-1.69h11c.11,1.28.17,2.55.17,3.8q0,6.95-4.35,10.77t-13.57,3.82q-8.76,0-14-5.52T781.25,1197Z"/><path class="cls-11" d="M834.33,1176l14.77,22.89h.24c-.28-3-.41-5.94-.41-8.94,0-4.43-.1-9.09-.29-14h11.27q-.3,6.66-.3,21.25,0,14.13.3,20.79H848.34l-14.71-22.36h-.29q.4,4.42.41,8.87,0,3.74.29,13.49H822.77q.29-6.66.29-20.79,0-14.6-.29-21.25Z"/><path class="cls-11" d="M878.12,1218H865.39q.3-9.23.3-20.55,0-12.27-.3-21.49h12.73q-.29,9.22-.29,21.49Q877.83,1208.78,878.12,1218Z"/><path class="cls-11" d="M882.33,1197q0-10.63,5.19-16.12t14-5.49q17.92,0,17.93,14.6c0,1.33-.06,2.59-.18,3.8h-11c0-.39.06-1,.06-1.76q0-7.69-6.48-7.7a5.66,5.66,0,0,0-5.23,3c-1.14,2-1.72,5.2-1.72,9.72s.58,7.76,1.72,9.72a5.66,5.66,0,0,0,5.23,3q6.48,0,6.48-7.77c0-.74,0-1.3-.06-1.69h11c.12,1.28.18,2.55.18,3.8q0,6.95-4.36,10.77t-13.57,3.82q-8.76,0-14-5.52T882.33,1197Z"/><path class="cls-11" d="M947.38,1218l-2.22-7.83H933.48l-2.34,7.83h-11.5q8.64-26,12.9-42H948q5.43,20.43,12.61,42ZM936,1201.48h6.89q-1.93-7.59-3.33-14.89h-.23Q937.91,1194.07,936,1201.48Z"/><path class="cls-11" d="M1004.36,1184.9h-11.5q-.06,5-.06,12.56,0,11.32.29,20.55H980.37q.28-9.23.29-20.55,0-7.59-.06-12.56H969.15V1176h35.21Z"/><path class="cls-11" d="M1020.36,1184.9v7.3h15.83l-.47,9h-15.36v7.89h19.33V1218h-31.77q.3-9.23.3-20.55,0-12.27-.3-21.49h31.77v8.93Z"/><path class="cls-11" d="M1079.74,1218h-13.13q-.3-4.1-.3-8.23a7.37,7.37,0,0,0-1-4.32c-.64-.86-1.9-1.29-3.77-1.29h-5q.12,8.76.29,13.84h-12.73q.3-9.23.3-20.55,0-12.27-.3-21.49h20.09q14.84,0,14.83,11.91,0,5.55-2.45,8.26a9,9,0,0,1-6.42,2.95v.23q8.64.53,8.64,10A41.8,41.8,0,0,0,1079.74,1218Zm-23.12-22.77h5.43a4.42,4.42,0,0,0,3.45-1.23,5.72,5.72,0,0,0,1.11-3.91,5.93,5.93,0,0,0-1.08-4,4.22,4.22,0,0,0-3.3-1.2h-5.61Z"/><path class="cls-11" d="M1119.57,1218h-13.14c-.2-2.73-.29-5.47-.29-8.23a7.28,7.28,0,0,0-1-4.32c-.64-.86-1.89-1.29-3.76-1.29h-5q.12,8.76.3,13.84H1084q.29-9.23.29-20.55,0-12.27-.29-21.49h20.08q14.84,0,14.83,11.91c0,3.7-.81,6.45-2.45,8.26a9,9,0,0,1-6.42,2.95v.23q8.64.53,8.64,10A41.12,41.12,0,0,0,1119.57,1218Zm-23.13-22.77h5.43a4.42,4.42,0,0,0,3.45-1.23,5.72,5.72,0,0,0,1.11-3.91,5.93,5.93,0,0,0-1.08-4,4.22,4.22,0,0,0-3.3-1.2h-5.61Z"/><path class="cls-11" d="M1136.56,1218h-12.73q.29-9.23.29-20.55,0-12.27-.29-21.49h12.73q-.3,9.22-.29,21.49Q1136.27,1208.78,1136.56,1218Z"/><path class="cls-11" d="M1175.33,1184.9h-11.5q-.06,5-.06,12.56,0,11.32.29,20.55h-12.73q.29-9.23.29-20.55,0-7.59-.06-12.56h-11.44V1176h35.21Z"/><path class="cls-11" d="M1196.35,1175.38q19.38,0,19.39,21.61,0,10.68-5.26,16.14t-14.13,5.46q-19.39,0-19.39-21.6,0-10.74,5.26-16.18T1196.35,1175.38Zm0,8.94a5.58,5.58,0,0,0-5.2,3q-1.7,3-1.69,9.67,0,7.29,1.63,10a5.7,5.7,0,0,0,5.26,2.69,5.53,5.53,0,0,0,5.17-3c1.11-2,1.66-5.21,1.66-9.72q0-7.24-1.6-10A5.62,5.62,0,0,0,1196.35,1184.32Z"/><path class="cls-11" d="M1255.56,1218h-13.14c-.2-2.73-.29-5.47-.29-8.23a7.28,7.28,0,0,0-1-4.32c-.64-.86-1.89-1.29-3.76-1.29h-5q.12,8.76.3,13.84H1220q.29-9.23.29-20.55,0-12.27-.29-21.49h20.08q14.84,0,14.83,11.91c0,3.7-.81,6.45-2.45,8.26a9,9,0,0,1-6.42,2.95v.23q8.64.53,8.64,10A41.12,41.12,0,0,0,1255.56,1218Zm-23.13-22.77h5.43a4.42,4.42,0,0,0,3.45-1.23,5.72,5.72,0,0,0,1.11-3.91,5.93,5.93,0,0,0-1.08-4,4.22,4.22,0,0,0-3.3-1.2h-5.61Z"/><path class="cls-11" d="M1272.55,1218h-12.73q.29-9.23.29-20.55,0-12.27-.29-21.49h12.73q-.3,9.22-.29,21.49Q1272.26,1208.78,1272.55,1218Z"/><path class="cls-11" d="M1302.5,1218l-2.22-7.83H1288.6l-2.33,7.83h-11.5q8.64-26,12.9-42h15.42q5.43,20.43,12.61,42Zm-11.38-16.53H1298q-1.93-7.59-3.33-14.89h-.24Q1293,1194.07,1291.12,1201.48Z"/><path class="cls-11" d="M1347.93,1209.08V1218h-29.84q.3-9.23.29-20.55,0-12.27-.29-21.49h12.73q-.3,9.22-.29,21.49,0,7.07.06,11.62Z"/><path class="cls-11" d="M102.12,1260.76h20.41q9.85,0,15.65,5.9t5.81,17.43q0,11.09-5.9,17.21t-15.56,6.12H102.12q.31-10.23.32-22.81Q102.44,1271,102.12,1260.76Zm13.8,36.75h6.61q7.59,0,7.59-13.42,0-6.87-1.85-10.14a6.15,6.15,0,0,0-5.74-3.27h-6.61Z"/><path class="cls-11" d="M162.59,1270.68v8.1h17.56l-.52,10h-17v8.75H184v9.91H148.78q.33-10.23.32-22.81,0-13.6-.32-23.85H184v9.92Z"/><path class="cls-11" d="M222.15,1297.51v9.91H189q.32-10.23.32-22.81,0-13.6-.32-23.85h14.13q-.33,10.24-.33,23.85,0,7.85.07,12.9Z"/><path class="cls-11" d="M250.27,1270.68v8.1h17.57l-.52,10h-17v8.75h21.46v9.91H236.47q.33-10.23.32-22.81,0-13.6-.32-23.85h35.26v9.92Z"/><path class="cls-11" d="M302.06,1294.33a3.49,3.49,0,0,0-1.43-2.91,9.69,9.69,0,0,0-3.76-1.66c-1.55-.36-3.26-.71-5.12-1a42.65,42.65,0,0,1-5.54-1.37,23.27,23.27,0,0,1-5.09-2.3,10.14,10.14,0,0,1-3.75-4.24,14.74,14.74,0,0,1-1.43-6.77q0-6.81,5.18-10.37t14.65-3.57q9.14,0,14.07,3.18t4.92,9.59c0,.86-.09,2.2-.26,4H302.32a10.86,10.86,0,0,0,.13-1.88q0-6-6.22-6t-6.36,4.86a3.52,3.52,0,0,0,1.95,3.11,13,13,0,0,0,4.83,1.58,63.65,63.65,0,0,1,6.28,1.3,45.92,45.92,0,0,1,6.29,2.08,10.78,10.78,0,0,1,4.83,4.11,12.86,12.86,0,0,1,1.94,7.26q0,7.32-5.21,11t-14.88,3.69q-10.95,0-15.85-3.21t-4.89-11c0-.47,0-1.27.13-2.39h12.06a14.27,14.27,0,0,0-.07,1.68q0,6,7.52,6C299.64,1299.06,302.06,1297.49,302.06,1294.33Z"/><path class="cls-11" d="M357.54,1270.68H344.77q-.06,5.5-.06,13.93,0,12.57.32,22.81H330.9q.33-10.23.32-22.81,0-8.43-.06-13.93h-12.7v-9.92h39.08Z"/><path class="cls-11" d="M384.63,1307.42l-2.46-8.68h-13l-2.59,8.68H353.84q9.6-28.9,14.33-46.66h17.11q6,22.68,14,46.66ZM372,1289.08h7.65q-2.14-8.41-3.7-16.52h-.26Q374.14,1280.86,372,1289.08Z"/><path class="cls-11" d="M401.93,1260.76h20.42q9.86,0,15.65,5.9t5.8,17.43q0,11.09-5.9,17.21t-15.55,6.12H401.93q.33-10.23.33-22.81Q402.26,1271,401.93,1260.76Zm13.81,36.75h6.61q7.57,0,7.58-13.42,0-6.87-1.85-10.14a6.13,6.13,0,0,0-5.73-3.27h-6.61Z"/><path class="cls-11" d="M468.75,1260.11q21.53,0,21.52,24,0,11.87-5.83,17.92t-15.69,6.06q-21.51,0-21.51-24,0-11.92,5.83-17.95T468.75,1260.11Zm0,9.92a6.19,6.19,0,0,0-5.77,3.34q-1.87,3.33-1.88,10.72,0,8.1,1.82,11.08a6.31,6.31,0,0,0,5.83,3,6.16,6.16,0,0,0,5.74-3.28q1.85-3.27,1.85-10.79,0-8-1.79-11A6.21,6.21,0,0,0,468.75,1270Z"/><path class="cls-11" d="M540.17,1297.51v9.91H507.06q.31-10.23.32-22.81,0-13.6-.32-23.85h14.12q-.31,10.24-.32,23.85,0,7.85.06,12.9Z"/><path class="cls-11" d="M571.54,1307.42l-2.46-8.68h-13l-2.6,8.68H540.76q9.59-28.9,14.32-46.66h17.11q6,22.68,14,46.66Zm-12.64-18.34h7.65q-2.13-8.41-3.69-16.52h-.26Q561,1280.86,558.9,1289.08Z"/><path class="cls-11" d="M628.32,1307.42H613.73c-.21-3-.32-6.07-.32-9.13,0-2.25-.36-3.85-1.07-4.8s-2.11-1.43-4.18-1.43h-5.51q.14,9.72.33,15.36H588.85q.31-10.23.32-22.81,0-13.6-.32-23.85h22.29q16.47,0,16.46,13.22c0,4.11-.9,7.16-2.72,9.17a10,10,0,0,1-7.13,3.27v.26q9.6.58,9.59,11.09A45.81,45.81,0,0,0,628.32,1307.42Zm-25.67-25.27h6a4.92,4.92,0,0,0,3.82-1.36,6.39,6.39,0,0,0,1.23-4.35c0-2.07-.4-3.55-1.19-4.44a4.73,4.73,0,0,0-3.67-1.32h-6.22Z"/><path class="cls-11" d="M660.2,1307.42l-2.46-8.68h-13l-2.59,8.68H629.42q9.58-28.9,14.32-46.66h17.11q6,22.68,14,46.66Zm-12.63-18.34h7.64q-2.13-8.41-3.69-16.52h-.26Q649.7,1280.86,647.57,1289.08Z"/><path class="cls-12" d="M713.41,1307.42l-2.46-8.68H698l-2.59,8.68H682.63q9.58-28.9,14.32-46.66h17.11q6,22.68,14,46.66Zm-12.63-18.34h7.64q-2.13-8.41-3.69-16.52h-.26Q702.91,1280.86,700.78,1289.08Z"/><path class="cls-12" d="M743.55,1260.76l16.4,25.41h.26c-.31-3.29-.46-6.59-.46-9.92q0-7.39-.32-15.49h12.51q-.33,7.4-.33,23.59,0,15.69.33,23.07H759.11l-16.34-24.82h-.32q.45,4.94.45,9.85,0,4.15.33,15H730.72q.31-7.38.32-23.07,0-16.2-.32-23.59Z"/><path class="cls-12" d="M778,1260.76h20.42q9.84,0,15.65,5.9t5.8,17.43q0,11.09-5.9,17.21t-15.55,6.12H778q.33-10.23.32-22.81Q778.35,1271,778,1260.76Zm13.8,36.75h6.62q7.57,0,7.58-13.42,0-6.87-1.85-10.14a6.13,6.13,0,0,0-5.73-3.27h-6.62Z"/><path class="cls-12" d="M864.16,1307.42H849.58c-.21-3-.32-6.07-.32-9.13,0-2.25-.36-3.85-1.07-4.8s-2.11-1.43-4.18-1.43H838.5q.12,9.72.32,15.36H824.69q.33-10.23.33-22.81,0-13.6-.33-23.85H847q16.46,0,16.46,13.22c0,4.11-.91,7.16-2.72,9.17a10,10,0,0,1-7.13,3.27v.26q9.58.58,9.59,11.09A46.49,46.49,0,0,0,864.16,1307.42Zm-25.66-25.27h6a4.94,4.94,0,0,0,3.82-1.36,6.39,6.39,0,0,0,1.23-4.35q0-3.11-1.2-4.44a4.71,4.71,0,0,0-3.66-1.32H838.5Z"/><path class="cls-12" d="M882.7,1270.68v8.1h17.56l-.51,10h-17v8.75h21.45v9.91H868.9q.32-10.23.32-22.81,0-13.6-.32-23.85h35.25v9.92Zm1-13.16-3.24-5.12,13.41-9.72,4.41,7.06Z"/><path class="cls-12" d="M934.48,1294.33a3.48,3.48,0,0,0-1.42-2.91,9.75,9.75,0,0,0-3.76-1.66c-1.56-.36-3.26-.71-5.12-1a41.87,41.87,0,0,1-5.54-1.37,23.06,23.06,0,0,1-5.09-2.3,10.16,10.16,0,0,1-3.76-4.24,14.87,14.87,0,0,1-1.43-6.77q0-6.81,5.19-10.37t14.65-3.57q9.13,0,14.06,3.18t4.93,9.59c0,.86-.09,2.2-.26,4H934.74a9.93,9.93,0,0,0,.13-1.88q0-6-6.22-6t-6.35,4.86a3.53,3.53,0,0,0,1.94,3.11,13.14,13.14,0,0,0,4.83,1.58q2.88.44,6.29,1.3a46.37,46.37,0,0,1,6.29,2.08,10.71,10.71,0,0,1,4.82,4.11,12.78,12.78,0,0,1,1.95,7.26q0,7.32-5.22,11t-14.87,3.69q-11,0-15.85-3.21t-4.89-11c0-.47,0-1.27.13-2.39h12c0,.38-.06.95-.06,1.68q0,6,7.51,6C932.06,1299.06,934.48,1297.49,934.48,1294.33Z"/><path class="cls-12" d="M978.94,1270.68v8.1h17.57l-.52,10h-17v8.75h21.46v9.91H965.14q.32-10.23.32-22.81,0-13.6-.32-23.85h35.26v9.92Z"/><path class="cls-12" d="M1038.5,1297.51v9.91h-33.11q.32-10.23.32-22.81,0-13.6-.32-23.85h14.12q-.32,10.24-.32,23.85,0,7.85.07,12.9Z"/><path class="cls-12" d="M1061.71,1260.11q21.51,0,21.51,24,0,11.87-5.83,17.92t-15.68,6.06q-21.53,0-21.52-24,0-11.92,5.83-17.95T1061.71,1260.11Zm0,9.92a6.18,6.18,0,0,0-5.77,3.34q-1.87,3.33-1.88,10.72,0,8.1,1.81,11.08a6.32,6.32,0,0,0,5.84,3,6.14,6.14,0,0,0,5.73-3.28q1.85-3.27,1.85-10.79,0-8-1.78-11A6.21,6.21,0,0,0,1061.71,1270Z"/><path class="cls-12" d="M1081.54,1260.76h14.91q4.47,10.31,7.9,19.83h.26q2.92-7.77,8.3-19.83h13.35l-15.55,31.82q0,8.94.32,14.84h-14.2q.39-5.89.39-14.84Z"/><path class="cls-12" d="M1172,1283.18v.26q7.32,2.14,7.32,10.83,0,13.15-20.42,13.15h-20.48q.33-10.23.33-22.81,0-13.6-.33-23.85h20.48a57,57,0,0,1,5.74.26,24.06,24.06,0,0,1,5,1.07,12.17,12.17,0,0,1,4.12,2.17,9.84,9.84,0,0,1,2.62,3.66,13.46,13.46,0,0,1,1,5.41Q1177.4,1280.53,1172,1283.18Zm-19.77-12.63V1279h6.54c3.12,0,4.67-1.42,4.67-4.28,0-1.59-.38-2.69-1.13-3.27a5.84,5.84,0,0,0-3.54-.87Zm0,27h6.67c2.51,0,4.22-.35,5.12-1.07a4.13,4.13,0,0,0,1.37-3.46c0-1.69-.44-2.85-1.3-3.47s-2.59-.94-5.19-.94h-6.67Z"/><path class="cls-12" d="M1216.93,1297.51v9.91h-33.12q.33-10.23.33-22.81,0-13.6-.33-23.85h14.13q-.33,10.24-.32,23.85,0,7.85.06,12.9Z"/><path class="cls-12" d="M1248.3,1307.42l-2.46-8.68h-13l-2.59,8.68h-12.77q9.6-28.9,14.33-46.66H1249q6,22.68,14,46.66Zm-12.64-18.34h7.65q-2.14-8.41-3.7-16.52h-.25Q1237.8,1280.86,1235.66,1289.08Z"/><path class="cls-12" d="M1278.44,1260.76l16.39,25.41h.26c-.3-3.29-.45-6.59-.45-9.92q0-7.39-.33-15.49h12.51q-.32,7.4-.32,23.59,0,15.69.32,23.07H1294l-16.33-24.82h-.33q.47,4.94.46,9.85,0,4.15.32,15H1265.6q.33-7.38.33-23.07,0-16.2-.33-23.59Z"/><path class="cls-12" d="M1311.49,1284.09q0-11.79,5.77-17.89t15.49-6.09q19.89,0,19.9,16.2c0,1.47-.07,2.88-.2,4.22h-12.18q.06-.65.06-2,0-8.55-7.19-8.55a6.27,6.27,0,0,0-5.8,3.27q-1.92,3.27-1.92,10.79t1.92,10.79a6.28,6.28,0,0,0,5.8,3.28q7.18,0,7.19-8.62c0-.82,0-1.45-.06-1.88h12.18c.13,1.42.2,2.83.2,4.21q0,7.71-4.83,12t-15.07,4.24q-9.72,0-15.49-6.12T1311.49,1284.09Z"/><path class="cls-12" d="M1377.73,1260.11q21.51,0,21.51,24,0,11.87-5.83,17.92t-15.68,6.06q-21.52,0-21.52-24,0-11.92,5.83-17.95T1377.73,1260.11Zm0,9.92a6.17,6.17,0,0,0-5.77,3.34q-1.87,3.33-1.88,10.72,0,8.1,1.81,11.08a6.32,6.32,0,0,0,5.84,3,6.14,6.14,0,0,0,5.73-3.28q1.85-3.27,1.85-10.79,0-8-1.78-11A6.21,6.21,0,0,0,1377.73,1270Z"/></svg>