<svg id="Capa_1" data-name="Capa 1" xmlns="http://www.w3.org/2000/svg" viewBox="0 0 2818.17 281.16"><defs><style>.cls-1{fill:#353465;}.cls-2{fill:#e73f3d;}.cls-3{fill:#cbaf29;}.cls-4{fill:#bc2624;}.cls-5{fill:#ecdc3c;}.cls-6{fill:#e74545;}.cls-7{fill:#dcca33;}.cls-8{fill:#7a2524;}.cls-9{fill:#d0b533;}.cls-10{fill:#383866;}.cls-11{fill:#eee142;}.cls-12{fill:#e5423d;}.cls-13{fill:#b92623;}.cls-14{fill:#5680b5;}.cls-15{fill:#962f2f;}.cls-16{fill:#982824;}.cls-17{fill:#dbc532;}.cls-18{fill:#972824;}.cls-19{fill:#848484;}.cls-20{fill:#777;}.cls-21{fill:#e63e3c;}.cls-22{fill:#f4ad3c;}.cls-23{fill:#ea3f3b;}.cls-24{fill:#238fc9;}.cls-25{fill:#1db0e5;}.cls-26{fill:#f0a14a;}.cls-27{fill:#229bd2;}.cls-28{fill:#2693c9;}.cls-29{fill:#ee993b;}.cls-30{fill:#2e8bb7;}.cls-31{fill:#4f9ec4;}.cls-32{fill:#4e9fc6;}.cls-33{fill:#4296bf;}.cls-34{fill:#529dc5;}.cls-35{fill:#3292bd;}.cls-36{fill:#3591ba;}.cls-37{fill:#318db8;}.cls-38{fill:#e54442;}.cls-39{fill:#e84745;}.cls-40{fill:#3d5971;}.cls-41{fill:#6d2526;}.cls-42{fill:#3a577a;}.cls-43{fill:#6b9dc9;}.cls-44{fill:#587a9f;}.cls-45{fill:#6d9ecc;}.cls-46{fill:#5a81a8;}.cls-47{fill:#fcfcfc;}.cls-48{fill:#fbfbfa;}.cls-49{fill:#c4d6e3;}.cls-50{fill:#b7dbef;}.cls-51{fill:#c3e0f5;}.cls-52{fill:#cce5f2;}.cls-53{fill:#343467;}</style></defs><path class="cls-1" d="M2473.21,92.4a38.8,38.8,0,0,1,18.39-50.06c19.93-10.06,45.3-3,56.64,15.68,13.76,22.71,5.74,43.7-28.53,68.24,10.3,0,17.4.14,24.49,0,9.6-.23,15.19,2.87,15.05,13.72-.13,10.59-5.55,14-15.15,14-19.38-.07-38.78-.33-58.15.13-9.75.23-16.38-5.93-18.37-12.64-1.45-4.9,1.13-12.78,7.77-18.26a211.67,211.67,0,0,1,27.59-19.2c7.43-4.37,14.55-9.09,19.68-16.22,3.71-5.18,5.42-10.4,1.15-16.09a14.44,14.44,0,0,0-14.15-5.84c-6.31.93-11.61,4.74-11.54,11.46.19,16.87-10.44,17.31-22.85,15.75l-.85-.81Z"/><path class="cls-2" d="M2323,199.86c7.7,8,15.07,16.27,23.22,23.76,5,4.63,7.27,8.75,2.72,14.64-5.78,6.31-10.37,2.1-14.35-2-7.67-8-16.56-14.71-23.69-23.21-31.74-36.46-66.36-37.92-100.27-4.28-8.32,8.26-16.67,16.49-25.2,24.54-4.45,4.19-9.35,11.26-15.86,4.18-6.11-6.65.63-11.6,5.1-15.89,16.11-15.47,30.85-32.4,49.36-45.32,1-1.06,2.05-2.12,3.07-3.19,5.69,1.12,10.92.21,15.51-3.46,11.83-1.93,23.66-3.89,35.23,1.25l21.9,8.67C2309.47,184.08,2315.73,192.53,2323,199.86Z"/><path class="cls-3" d="M77.92,93.52C96,82.31,115.71,80.78,136.2,84.33c4.65,13,8.06,26.18,4.57,40.1-11.54,8.12-24.9,9.11-38.41,9.52C86.94,124.78,77.62,112,77.92,93.52Z"/><path class="cls-4" d="M113.06,219.28l-24.28,17.8c-7.85,2.59-16.5,5.53-21.59-3.43s-7.66-18.9-.19-28.38c3-3.77,6.57-7,9.43-10.89,3.41-4.92,7.49-9.14,13.08-11.71a55.2,55.2,0,0,1,11.91-3.62c8.9-.94,15.47,1.73,18.47,10.87C123.58,201.15,124,211.46,113.06,219.28Z"/><path class="cls-5" d="M138.86,125.65c-.08-13.82-4.82-27.36-2.66-41.32,11.27,12.23,21.36.52,31.93-1.52,2.47,13,7.43,25.48,9,38.72-1.14,4.38-4.47,6.81-8.1,9-8.32,3.88-16.26,9.52-26.31,5.75C138.92,133.64,136.26,130.57,138.86,125.65Z"/><path class="cls-6" d="M2249.38,152.44l-3.19-3a388.56,388.56,0,0,0-41.48-40.87c-1.2-5-4.57-10.67,1.67-14.11,5.77-3.19,10.15,1.77,13.77,5.13,14.72,13.61,29,27.65,43.52,41.52,5.61,4.75,4.28,10.75.3,14.57C2258.72,160.75,2253.39,157.44,2249.38,152.44Z"/><path class="cls-7" d="M77.92,93.52c5.39,13.83,12.22,26.8,22.77,37.57a3.47,3.47,0,0,1,.1,4.17c-9,4.31-17,10.61-26.77,13.44a8.42,8.42,0,0,1-4.6-1.38c-8.35-6.53-12.25-15.69-15.62-25.27-2.38-6.78-1.07-12.35,4.37-17C63.46,99,69.88,94.92,77.92,93.52Z"/><path class="cls-8" d="M174.63,217.65c-5.9,3.36-14.23,5.26-17.32-.11-9-15.67-20-7.5-30.95-4.62a5.12,5.12,0,0,1-1.38-4.29c2.92-22.08,1.91-24.25-15.52-33.08.12-3.86,3-5.14,6-6.39,12.15-2.81,24.64-10.12,35.71,2.45,3.59,2.81,8.39,3.87,11.4,7.54C155.87,195.25,164.39,206.71,174.63,217.65Z"/><path class="cls-9" d="M181.27,70.71c11-6.82,17.83-17.74,28-28.72,3.84,18.47,1.17,35.1,1.37,51.58-5.22,9-7.62,21.09-22.29,19.58.86-13.48-10.92-23.4-10.66-36.72C178.86,74.53,180.06,72.62,181.27,70.71Z"/><path class="cls-10" d="M2778.64,111.49c-9.61,20.51-22.57,37-47.73,38.92-2.7-7.25-2.8-14.72-2-22.28,9.74-8.3,19.2-16.89,27.13-27a49,49,0,0,1,22.62,1.78c.15,2,.3,4,.44,6A1.8,1.8,0,0,0,2778.64,111.49Z"/><path class="cls-11" d="M58.17,105c-6.11,16.85,4.92,28.25,13.19,40.53-1.8,11.84-13.16,13.58-20.8,19.28-3.52,1.46-7,3.31-11,1.33-.3-10.08-.07-20.21-1-30.23C37.09,120.39,44.24,110.74,58.17,105Z"/><path class="cls-12" d="M2242.63,77c-13.94,13-19.75,12.33-29.64-2.67a134,134,0,0,1-15.58-32.4c17.91,6.8,34.13,11.47,45.47,25.54,0,1,.09,2.09.13,3.14Q2242.83,73.8,2242.63,77Z"/><path class="cls-13" d="M174.63,217.65c-19.9-8.76-24.14-21.2-13-38,.82-3.8,3.63-5.53,7.05-6.67a23.85,23.85,0,0,1,7.76-.72c18.36,8,21,29.5,5.17,42.81C180,217.74,177.45,218.08,174.63,217.65Z"/><path class="cls-14" d="M39.59,166.16,49.06,163c7.29,2,7.17,9.83,6.7,13.6-1.5,12.08,7,17.67,13.3,24.91-6,12.89-15.38,22.14-29.57,26Q39.54,196.82,39.59,166.16Z"/><path class="cls-15" d="M39.49,227.48c9.36-8.73,20.67-15.38,28.39-25.86,2.27-6,5.67-9.94,12.91-7.07-5,6.53-12.4,12.41-14.42,19.75C62.48,228.44,71,236,88.78,237.08c-14.58,9.83-30.86,4.49-46.25,4C36.21,240.93,39.89,232.34,39.49,227.48Z"/><path class="cls-16" d="M181.65,215.1c10.28-16.3,7-34.32-7.11-39.52,2.06-9.8,10-11.64,18.2-13,11.2-.41,14.62,5.62,14.46,15.83-.12,7.72-1.88,15.78,2.26,23.16l-12.57,9.29Z"/><path class="cls-17" d="M177.65,76.43c4.5,11.87,19.84,20.67,10.56,36.43.58,3.23-1,5.58-3.18,7.73-3.06,2.25-6.17,4.27-10,1.55-2.49-13.08-13.63-24.67-6.89-39.33A14.11,14.11,0,0,1,177.65,76.43Z"/><path class="cls-18" d="M111.1,176.09c20-.14,26.31,15,15.26,36.83l-13.3,6.36c1-7.75,7.32-13.35,4.55-23.38-2.92-10.58-6.58-14.52-16.81-13.58C100.87,174.81,105,173.84,111.1,176.09Z"/><path class="cls-19" d="M546.83,234V107.7l2.94,0v126.1Z"/><path class="cls-20" d="M1332.26,243V114.75h2.19V243.42Z"/><path class="cls-1" d="M2629.22,40.86c19.22,5.25,23.14,8.18,42,31.52,10.17-16.19,22.66-29.18,43.27-30.79,3.7,7.12,1.64,14.64,1.61,22-7,8.8-16.73,15.14-23.07,24.58-.42.31-.82.77-1.29.86-18.77,3.45-18.76,3.45-19.82,23.46a7.72,7.72,0,0,1-2.73,5.38c-13.46,24.7-33.48,35.6-59.82,32.59-22.78-2.61-40.06-19.16-47.24-45.25,6.47-5,14.14-4.12,21.58-4.28,5.75,1.6,7.72,6.9,11,10.94,11.21,13.59,28.51,15.56,41.1,4.8s12.79-30.06.27-42.11c-3.43-3.3-7.89-5.54-10.37-9.84C2625.4,56.59,2622.92,48.09,2629.22,40.86Z"/><path class="cls-21" d="M2297.07,125c31.46,31.29,63,62.49,94.26,94,4,4,13,8.15,6.77,15.26-6.48,7.36-13.67,2.25-19.37-3.12s-11.37-11.27-17-16.93c-11.48-11.77-26.5-20-35.1-34.65l-39.21-38.75a192.57,192.57,0,0,1-25.41-25c-5.53-7.64-20.5-11.87-9.43-25.5,11.55-1,15.76,9,22.63,14.83C2282.67,111.57,2289.79,118.4,2297.07,125Z"/><path class="cls-22" d="M2629.22,40.86c.42,7.82.15,15.55-3.11,22.89-.32.42-.61,1.19-1,1.22-23,2.25-34.24,16.72-39.67,37.23-7.28,4.76-15.2,4.75-23.35,3C2553.29,65.54,2587.36,32.85,2629.22,40.86Z"/><path class="cls-23" d="M2715.49,63.52c-4.37-7.12-3.35-14.5-1-21.93,41.62-3.53,67.14,20.85,64.21,61.33-7.64,5.12-14.95,2.3-22.25-.89-3.33-2.44-3.83-6.25-4.75-9.8-3.57-13.73-11.92-22.17-26.54-24C2721.48,67.73,2717.56,67.39,2715.49,63.52Z"/><path class="cls-24" d="M2444.76,221.16c2.5,4.93,8.38,10,1.72,15.32-6.45,5.18-11-.57-15-4.49-21.39-20.85-42.59-41.88-63.85-62.84-4.36-4.3-8.83-9.18-3.46-15,6.17-6.65,10.53-.21,14.57,3.59,15.93,14.95,31.68,30.08,47.49,45.15Z"/><path class="cls-25" d="M2669.17,117.91c-.26-2.61-.39-5.23-.79-7.81-3.79-24.13-.61-27.31,22.56-22.47,5.85,4.12,4.46,10,3.94,15.66-2.92,8-.29,14.07,6.26,19.25,5.71,4.53,7.85,10.52,2.24,16.25-5.79,5.89-10.45.58-14.94-2.93s-7.4-8.93-12.85-11.47Z"/><path class="cls-26" d="M2371.92,80.52,2368.54,77c-5.42-5.35-7.05-12.53-9.5-19.3l.07,0c-3-2.76-6.08-5.38-6.64-9.85-1.19-9.49,3-9.37,9.55-5.42q10.45,5.25,20.91,10.48c8.49,4.22,14.45,10.17,14.52,20.26C2391.11,87.35,2388.31,88.15,2371.92,80.52Z"/><path class="cls-27" d="M2675.59,124.39c8-4.07,7,5.67,11.54,7.42,4.78,1.85,8.16,10.7,14.22,4.73,6.33-6.23-.67-9.29-5.19-13.18-5.09-4.38-10.17-9.84-5.44-17.66,11.4,10.33,24.15,18.36,39.2,22.47,2.91,7.3,5.64,14.61,1,22.24C2706.62,153.87,2688.12,145.31,2675.59,124.39Z"/><path class="cls-28" d="M2342.07,118.81c3.39,2.55,7.21,4.7,10.09,7.74,6.22,6.57,5.75,13.72-.78,19.61-6.81,6.14-14.51,5.37-19.38-2.08-6.89-10.54-12.39-22-18.58-33.16,7.22-4.22,11.14,1.67,16.08,2.19C2333.11,116.25,2337.09,118.62,2342.07,118.81Z"/><path class="cls-29" d="M2436.41,134.3,2404,102.5c-2.43-4.74-2.79-9.37,2.06-12.71,4.57-3.15,9.5-2.28,13.33,1.24,9.82,9,20.23,17.41,28.57,27.91,2.95,3.7,4.21,7.81,1.93,11.81C2446.89,136.07,2442.19,137.88,2436.41,134.3Z"/><path class="cls-30" d="M2362.17,96.65c5.85,1.47,12.08,3.88,9.08,11-3.59,8.54-10.08,3.63-15.56,1.28C2351.31,101.51,2359.38,100.43,2362.17,96.65Z"/><path class="cls-31" d="M2391.9,121.67c-.39,5.64-1.41,10.86-9,10.32a7.28,7.28,0,0,1-6.8-5.83c-1.53-6.78,2.74-9.54,8.62-10.82Z"/><path class="cls-32" d="M2328.94,58.3c3.69,5,8.81,10.92.16,15-7.76,3.67-11.21-1.78-12-9C2320.19,60.64,2323.47,57.36,2328.94,58.3Z"/><path class="cls-33" d="M2410.16,137.8c1.24,5.24,2.51,10.68-4.54,12.81-3.06.93-6.54.35-8.59-2.49-4.29-5.91.08-9.5,4-13.09Z"/><path class="cls-34" d="M2448.82,187.55c-5.21,2-10.67,3.51-14.13-2.4-3.33-5.68,2.16-8.35,5.18-11.73C2449.52,174,2450.11,180.2,2448.82,187.55Z"/><path class="cls-35" d="M2414,166.37c1.41-5.62,2.2-12.07,10.6-10.59a6.31,6.31,0,0,1,5.34,6.87c-.51,8.6-7,7.64-12.86,7.4C2416,168.83,2415,167.6,2414,166.37Z"/><path class="cls-36" d="M2351.81,91.68c-4.64,2.08-9.28,3.29-13.11-1.33-2.35-2.83-1.85-6,.31-8.72,4-5,8.59-2.44,13-.52C2352,84.63,2351.88,88.16,2351.81,91.68Z"/><path class="cls-37" d="M2313.47,42.74c1.38,15-6.15,14-16,8.72C2298.5,39.34,2301.46,37.73,2313.47,42.74Z"/><path class="cls-38" d="M2259,203.8c18.47-.9,29.22,11.32,40.08,23.17,2.82,3.09,2.67,6.9-.39,10.05-3.62,3.72-7.65,3.52-11.43.34-3.27-2.74-6.18-5.89-9.37-8.73-13.36-11.95-24.79-11.83-38.14.35-3.15,2.88-6.11,6-9.44,8.64s-6.9,2.5-10.16-.49-3.77-6.76-1-9.91C2229.88,215.19,2240.58,203,2259,203.8Z"/><path class="cls-39" d="M2194.19,74c1,7.58-3.74,10.15-9.29,13.28-6.62,3.72-9.79-.3-13.9-3.66-4.36-3.58-5.94-8.69-8.22-13.44-3.75-7.81-11.65-14.36-10.61-23.36.35-3.06,7.86-.71,11.38,1.63C2174.73,55.89,2192.68,55.65,2194.19,74Z"/><path class="cls-40" d="M184.56,118.61c1.22-1.92,2.43-3.84,3.65-5.75,10.46-3,14.33-13.54,22.39-19.3q0,29.79,0,59.58c-5.06,5.72-9.67,12.17-18.79,11.29-.82-9.68,1.41-18.93,4.09-28.1.72-2.44,1.43-4.89.9-7.46C195,122.79,183.9,127.47,184.56,118.61Z"/><path class="cls-41" d="M191.52,163.11c8-.28,10.81-10.2,19.07-10,.57,16.15,2.3,32.33-1.13,48.4-10.91-5-5.11-14.69-5.24-22-.19-10-3.33-14.58-13.61-13.39A2,2,0,0,1,191.52,163.11Z"/><path class="cls-42" d="M149.26,175.25c-9.49-13.94-21.61-3.13-32.55-3.37-1.18-1-2.74-2.33-2.67-3.71.63-12.43-2.69-22.92-13.83-30.09-1.21-.78-.91-2.81-.17-4.28a20.92,20.92,0,0,1,.64-2.71c12.84-1.05,25-6.51,38.18-5.44-.23,3.73,2.14,6.12,4.47,8.53C150.48,147.14,154,160.61,149.26,175.25Z"/><path class="cls-43" d="M80.79,194.55l-12.9,7.06C47.54,195.42,55.06,176,49.05,163l22.31-17.41a9.86,9.86,0,0,0,2.81,1.25c16.52-2.46,23.07,2,21.63,17.43-.62,6.61,7.4,16.25-4.79,20.39Z"/><path class="cls-44" d="M91,184.63c0-3,4.44-3.4,2.54-8.86-4.07-11.68,3.87-29.89-19.38-29,7.83-5.87,15.52-12,25.87-13,15.94,8.26,19.34,21.88,16.67,38.09q-2.82,2.09-5.62,4.2c-3.84,1.41-8.2,2-10.3,6.23C97.57,183.23,94.82,186.13,91,184.63Z"/><path class="cls-45" d="M149.26,175.25q-3-20.53-5.93-41.07c9.06.93,16.55-4.74,25.13-5.83,5.67,3.79,16.87,2.23,14.09,14.21-4.39,2.36-11.12,3.64-5,10.78,12.31,13.37-.67,16.89-8.87,22.28l-7,4.06C157.29,178.87,152.41,179.42,149.26,175.25Z"/><path class="cls-46" d="M168.7,175.62c5.5-6.17,16-10.92,6.29-21.43-.91-5.54.5-10.14,5.54-13.25-1.31-6.73-10.94-5.69-12.07-12.59l6.55-6.22,9.55-3.52c3.47,4.68,8.55,2.29,13,2.91,4.11.57,7.45,1.73,4.12,6.77-6.54,1.94-5.08,5.21-1.52,8.84-5.59,7.78.92,19.48-8.61,26-.29,1-.6,2-.9,3.07-6.49,1.24-11,5.8-16.07,9.4Z"/><path class="cls-47" d="M2729.92,128.17c-18.27,1.37-31.25-6.27-39.2-22.47q.12-9,.23-18.09c4.1-12.06,12.76-19.61,24.53-24.08,29.15.73,39.33,10.31,40.95,38.5C2751.71,114.82,2743.8,124.44,2729.92,128.17Z"/><path class="cls-48" d="M2585.46,102.2c.79-28.87,10.24-37.81,40.66-38.45,18.38,8.42,26.76,21.1,24,36.36a33.23,33.23,0,0,1-29.09,27.51C2605,129.34,2592.73,120.61,2585.46,102.2Z"/><path class="cls-49" d="M200.12,137.13c-3.63.26-9.33,2.86-7.86-4.16.59-2.87,1.92-11.83,9.38-4.68C201.13,131.24,200.63,134.19,200.12,137.13Z"/><path class="cls-50" d="M74.62,172.64c-.27,3.12-1.24,5.66-4.59,5.11a4.66,4.66,0,0,1-4-5.68c.45-2.68,2.21-4.95,5.13-4.86C74.78,167.31,74.44,170.44,74.62,172.64Z"/><path class="cls-51" d="M159.87,153.39c-1,3-1.7,6.46-5.83,6.4-3.2,0-4.57-2.36-4.47-5.3.12-3.54,1.86-6.23,5.67-6.2C158.09,148.32,160.05,150.15,159.87,153.39Z"/><path class="cls-52" d="M180.53,140.94c-1.65,4.49-.92,10-5.54,13.25-3.14-2-7.21-3.81-5.22-8.45S175.77,140,180.53,140.94Z"/><path d="M264,139.6a38.3,38.3,0,0,1-12.9,2.3c-6.37,0-11.61-1.61-15.7-5.55-3.61-3.48-5.84-9-5.83-15.58,0-12.52,8.62-21.68,22.69-21.68a26.65,26.65,0,0,1,10.5,1.92l-1.36,4.43a21.31,21.31,0,0,0-9.27-1.8c-10.18,0-16.86,6.34-16.86,16.85s6.38,16.93,16.2,16.93c3.55,0,6-.5,7.2-1.13v-12.5h-8.49v-4.34H264Z"/><path d="M294.66,126.13c0,11.16-7.74,16-15,16-8.16,0-14.47-6-14.47-15.52,0-10.08,6.62-16,15-16C288.82,110.68,294.66,117,294.66,126.13Zm-23.88.35c0,6.61,3.79,11.58,9.13,11.58s9.18-4.9,9.18-11.74c0-5.09-2.57-11.54-9.08-11.54S270.78,120.77,270.78,126.48Z"/><path d="M296.66,141.48c.15-2.07.25-5.09.25-7.77V97.27h5.44V116.2h.13c1.92-3.39,5.41-5.52,10.27-5.52,7.48,0,12.74,6.22,12.71,15.34,0,10.8-6.84,16.15-13.56,16.15a10.85,10.85,0,0,1-10.09-5.64h-.15l-.28,4.95Zm5.69-12.07a8.52,8.52,0,0,0,.23,2,8.43,8.43,0,0,0,8.21,6.41c5.77,0,9.15-4.66,9.15-11.57,0-6.06-3.13-11.24-9-11.24a8.71,8.71,0,0,0-8.28,6.73,9,9,0,0,0-.32,2.28Z"/><path d="M333.8,102.85a3.4,3.4,0,1,1-6.79,0,3.33,3.33,0,0,1,3.41-3.41A3.28,3.28,0,0,1,333.8,102.85Zm-6.12,38.63V111.37h5.45v30.11Z"/><path d="M340.65,127.41c.1,7.41,4.8,10.46,10.3,10.46a20.21,20.21,0,0,0,8.34-1.55l1,3.9a24.36,24.36,0,0,1-10,1.91c-9.26,0-14.82-6.16-14.82-15.19s5.37-16.26,14.17-16.26c9.82,0,12.39,8.62,12.39,14.16a13.6,13.6,0,0,1-.18,2.57Zm16-3.94c.05-3.45-1.42-8.86-7.56-8.86-5.59,0-8,5-8.41,8.86Z"/><path d="M364.1,120.74c0-3.55-.09-6.58-.25-9.37h4.8l.21,5.9h.19c1.41-4,4.73-6.59,8.39-6.59a6.06,6.06,0,0,1,1.52.16V116a8.53,8.53,0,0,0-1.86-.16c-3.86,0-6.59,2.91-7.33,7a14.71,14.71,0,0,0-.22,2.56v16.09H364.1Z"/><path d="M379.8,119.5c0-3.14-.1-5.64-.25-8.13h4.84l.31,4.95h.15a11.11,11.11,0,0,1,10-5.64c4.13,0,10.61,2.49,10.61,12.84v18H400V124.12c0-4.87-1.83-9-7-9a7.88,7.88,0,0,0-7.38,5.62,8.43,8.43,0,0,0-.38,2.54v18.15H379.8Z"/><path d="M437,126.13c0,11.16-7.73,16-15,16-8.17,0-14.48-6-14.48-15.52,0-10.08,6.63-16,15-16C431.11,110.68,437,117,437,126.13Zm-23.88.35c0,6.61,3.79,11.58,9.13,11.58s9.18-4.9,9.18-11.74c0-5.09-2.57-11.54-9.08-11.54S413.07,120.77,413.07,126.48Z"/><path d="M609.86,165.07c-.3-5.32-.64-11.77-.61-16.5h-.16c-1.31,4.44-2.9,9.26-4.81,14.5l-6.75,18.55H593.8l-6.23-18.21c-1.83-5.41-3.31-10.31-4.38-14.84h-.14c-.13,4.76-.38,11.13-.75,16.87l-1,16.42h-4.69l2.66-38.25h6.32l6.51,18.52c1.57,4.68,2.86,8.89,3.85,12.88h.15c1-3.87,2.34-8.09,4-12.88L607,143.61h6.32l2.37,38.25h-4.86Z"/><path d="M626.72,146.66a3,3,0,0,1-3.18,3.1,3,3,0,0,1-3-3.1,3.1,3.1,0,1,1,6.19,0Zm-5.58,35.2V154.42h5v27.44Z"/><path d="M632.49,161.83c0-2.86-.09-5.14-.23-7.41h4.41l.28,4.51h.14a10.12,10.12,0,0,1,9.07-5.14c3.77,0,9.67,2.27,9.67,11.7v16.37h-5V166c0-4.44-1.67-8.16-6.35-8.16A7.18,7.18,0,0,0,637.8,163a7.64,7.64,0,0,0-.34,2.31v16.54h-5Z"/><path d="M667.63,146.66a3,3,0,0,1-3.17,3.1,3,3,0,0,1-3-3.1,3,3,0,0,1,3.1-3.11A3,3,0,0,1,667.63,146.66Zm-5.57,35.2V154.42h5v27.44Z"/><path d="M672.7,176.78a13.62,13.62,0,0,0,6.62,1.95c3.64,0,5.33-1.79,5.33-4.08s-1.45-3.66-5.1-5c-5-1.79-7.31-4.49-7.29-7.78,0-4.42,3.59-8.05,9.49-8.05a13.29,13.29,0,0,1,6.72,1.69l-1.24,3.63a10.77,10.77,0,0,0-5.63-1.62c-2.94,0-4.54,1.7-4.54,3.77,0,2.27,1.61,3.29,5.21,4.68,4.73,1.76,7.18,4.15,7.2,8.25,0,4.86-3.78,8.27-10.27,8.27a15.6,15.6,0,0,1-7.71-1.92Z"/><path d="M699.94,146.52v7.9h7.17v3.78h-7.17V173c0,3.42,1,5.35,3.78,5.35a10,10,0,0,0,2.89-.36l.23,3.79a12.77,12.77,0,0,1-4.46.69,7,7,0,0,1-5.39-2.12c-1.37-1.51-1.94-3.93-1.94-7.16v-15H690.8v-3.78h4.25v-6.61Z"/><path d="M713.6,169c.1,6.75,4.38,9.53,9.39,9.53a18.41,18.41,0,0,0,7.61-1.41l.87,3.55a22.13,22.13,0,0,1-9.16,1.75c-8.43,0-13.5-5.62-13.5-13.85s4.9-14.82,12.91-14.82c9,0,11.3,7.86,11.3,12.91a12.22,12.22,0,0,1-.17,2.34Zm14.61-3.59c0-3.15-1.29-8.08-6.88-8.08-5.1,0-7.27,4.61-7.67,8.08Z"/><path d="M737.3,163c0-3.24-.08-6-.22-8.54h4.37l.19,5.38h.18c1.28-3.68,4.31-6,7.64-6a6.06,6.06,0,0,1,1.39.14v4.7a7.72,7.72,0,0,0-1.7-.15c-3.52,0-6,2.65-6.68,6.39a13.13,13.13,0,0,0-.2,2.33v14.66h-5Z"/><path d="M759.52,146.66a3,3,0,0,1-3.18,3.1,3,3,0,0,1-3-3.1,3,3,0,0,1,3.1-3.11A3,3,0,0,1,759.52,146.66Zm-5.58,35.2V154.42h5v27.44Z"/><path d="M790.13,167.87c0,10.17-7,14.61-13.64,14.61-7.45,0-13.2-5.42-13.2-14.13,0-9.19,6-14.56,13.63-14.56C784.81,153.79,790.13,159.52,790.13,167.87Zm-21.76.32c0,6,3.45,10.56,8.32,10.56s8.36-4.48,8.36-10.7c0-4.65-2.34-10.52-8.27-10.52S768.37,163,768.37,168.19Z"/><path d="M828.31,141.57v33.21c0,2.44.09,5.19.23,7.08H824.1l-.26-4.75h-.13a10.05,10.05,0,0,1-9.31,5.37c-6.65,0-11.78-5.62-11.78-13.94,0-9.17,5.65-14.75,12.33-14.75,4.22,0,7,2,8.28,4.17h.12V141.57Zm-5,24a10.26,10.26,0,0,0-.21-2.13,7.38,7.38,0,0,0-7.23-5.74c-5.17,0-8.26,4.53-8.26,10.56,0,5.57,2.78,10.2,8.16,10.2a7.53,7.53,0,0,0,7.29-6,8.06,8.06,0,0,0,.25-2.14Z"/><path d="M837.49,169c.1,6.75,4.39,9.53,9.4,9.53a18.39,18.39,0,0,0,7.6-1.41l.87,3.55a22,22,0,0,1-9.15,1.75c-8.44,0-13.51-5.62-13.51-13.85s4.9-14.82,12.92-14.82c9,0,11.29,7.86,11.29,12.91a12.22,12.22,0,0,1-.17,2.34Zm14.61-3.59c0-3.15-1.28-8.08-6.88-8.08-5.1,0-7.27,4.61-7.66,8.08Z"/><path d="M861.21,141.57h5v40.29h-5Z"/><path d="M893,144.08a53.43,53.43,0,0,1,9.51-.77c4.85,0,8.43,1.13,10.72,3.18a10.44,10.44,0,0,1,3.36,8,11.26,11.26,0,0,1-3,8.19c-2.64,2.79-6.86,4.18-11.69,4.18a16.27,16.27,0,0,1-4-.35v15.34H893ZM898,162.5a15.16,15.16,0,0,0,4.1.43c6,0,9.61-2.94,9.61-8.17,0-5.06-3.61-7.54-9-7.54a24.57,24.57,0,0,0-4.68.39Z"/><path d="M946,167.87c0,10.17-7.05,14.61-13.65,14.61-7.44,0-13.19-5.42-13.19-14.13,0-9.19,6-14.56,13.63-14.56C940.66,153.79,946,159.52,946,167.87Zm-21.76.32c0,6,3.45,10.56,8.32,10.56s8.36-4.48,8.36-10.7c0-4.65-2.34-10.52-8.27-10.52S924.22,163,924.22,168.19Z"/><path d="M974.05,141.57v33.21c0,2.44.1,5.19.23,7.08h-4.44l-.25-4.75h-.14a10,10,0,0,1-9.3,5.37c-6.66,0-11.78-5.62-11.78-13.94,0-9.17,5.65-14.75,12.33-14.75,4.21,0,7,2,8.28,4.17h.11V141.57Zm-5,24a10.26,10.26,0,0,0-.21-2.13,7.38,7.38,0,0,0-7.23-5.74c-5.17,0-8.26,4.53-8.26,10.56,0,5.57,2.78,10.2,8.16,10.2a7.53,7.53,0,0,0,7.29-6,8.06,8.06,0,0,0,.25-2.14Z"/><path d="M983.24,169c.1,6.75,4.38,9.53,9.39,9.53a18.35,18.35,0,0,0,7.6-1.41l.88,3.55a22.13,22.13,0,0,1-9.16,1.75c-8.43,0-13.5-5.62-13.5-13.85s4.89-14.82,12.91-14.82c8.95,0,11.29,7.86,11.29,12.91a12.22,12.22,0,0,1-.17,2.34Zm14.61-3.59c0-3.15-1.29-8.08-6.89-8.08-5.09,0-7.26,4.61-7.66,8.08Z"/><path d="M1006.94,163c0-3.24-.08-6-.23-8.54h4.38l.19,5.38h.17c1.29-3.68,4.31-6,7.65-6a5.92,5.92,0,0,1,1.38.14v4.7a7.63,7.63,0,0,0-1.69-.15c-3.52,0-6,2.65-6.68,6.39a13.11,13.11,0,0,0-.21,2.33v14.66h-5Z"/><path d="M1033.82,144.08a53.61,53.61,0,0,1,9.51-.77c4.85,0,8.44,1.13,10.72,3.18a10.41,10.41,0,0,1,3.37,8,11.27,11.27,0,0,1-3,8.19c-2.63,2.79-6.86,4.18-11.68,4.18a16.27,16.27,0,0,1-4-.35v15.34h-4.94Zm4.94,18.42a15.11,15.11,0,0,0,4.1.43c6,0,9.61-2.94,9.61-8.17,0-5.06-3.62-7.54-9-7.54a24.36,24.36,0,0,0-4.67.39Z"/><path d="M1086.78,167.87c0,10.17-7,14.61-13.64,14.61-7.45,0-13.2-5.42-13.2-14.13,0-9.19,6-14.56,13.63-14.56C1081.46,153.79,1086.78,159.52,1086.78,167.87Zm-21.76.32c0,6,3.45,10.56,8.32,10.56s8.36-4.48,8.36-10.7c0-4.65-2.34-10.52-8.27-10.52S1065,163,1065,168.19Z"/><path d="M1091.16,163.36c0-3.5-.09-6.35-.23-8.94h4.46l.28,4.67h.11a10.74,10.74,0,0,1,9.74-5.3c6.65,0,11.65,5.6,11.65,13.93,0,9.89-6.05,14.76-12.47,14.76a9.57,9.57,0,0,1-8.46-4.32h-.12V193.1h-5Zm5,7.33a9.5,9.5,0,0,0,.22,2,7.67,7.67,0,0,0,7.46,5.85c5.29,0,8.35-4.34,8.35-10.63,0-5.47-2.87-10.18-8.16-10.18a7.93,7.93,0,0,0-7.55,6.16,8.77,8.77,0,0,0-.32,2Z"/><path d="M1144.48,174.35c0,2.88.1,5.34.23,7.51h-4.41l-.27-4.49h-.14a10.23,10.23,0,0,1-9.08,5.11c-4.29,0-9.45-2.4-9.45-12v-16h5v15.16c0,5.23,1.63,8.79,6.14,8.79a7.26,7.26,0,0,0,6.6-4.58,7.69,7.69,0,0,0,.46-2.56V154.42h5Z"/><path d="M1150.88,141.57h5v40.29h-5Z"/><path d="M1177.56,181.86l-.44-3.47H1177a10.2,10.2,0,0,1-8.4,4.09c-5.54,0-8.38-3.93-8.38-7.87,0-6.65,5.89-10.3,16.49-10.22v-.59c0-2.23-.63-6.36-6.25-6.33a13.33,13.33,0,0,0-7.15,2.05l-1.13-3.32a17.23,17.23,0,0,1,9.06-2.41c8.39,0,10.43,5.74,10.43,11.24v10.26a42.52,42.52,0,0,0,.42,6.57Zm-.78-14c-5.4-.12-11.58.85-11.58,6.16a4.39,4.39,0,0,0,4.65,4.78,6.87,6.87,0,0,0,6.69-4.6,5,5,0,0,0,.24-1.57Z"/><path d="M1187.76,163c0-3.24-.08-6-.23-8.54h4.37l.19,5.38h.18c1.28-3.68,4.31-6,7.64-6a6,6,0,0,1,1.39.14v4.7a7.72,7.72,0,0,0-1.7-.15c-3.51,0-6,2.65-6.68,6.39a13.13,13.13,0,0,0-.2,2.33v14.66h-5Z"/><path d="M1368.48,141.55v17.64c0,6.64,2.94,9.46,7,9.46,4.38,0,7.24-2.92,7.24-9.46V141.55h3.86v17.37c0,9.15-4.81,12.88-11.26,12.88-6.08,0-10.67-3.46-10.67-12.71V141.55Z"/><path d="M1393.4,155.73c0-2.23-.08-4-.18-5.77h3.43l.22,3.51h.1a7.9,7.9,0,0,1,7.07-4c2.93,0,7.52,1.76,7.52,9.1v12.74h-3.86V159c0-3.45-1.3-6.34-4.94-6.34a5.58,5.58,0,0,0-5.23,4,6,6,0,0,0-.27,1.8v12.87h-3.86Z"/><path d="M1422.55,143.92a2.41,2.41,0,1,1-2.4-2.41A2.33,2.33,0,0,1,1422.55,143.92Zm-4.34,27.4V150h3.87v21.36Z"/><path d="M1430.35,150l4.19,12c.72,2,1.27,3.74,1.75,5.51h.11c.49-1.77,1.1-3.55,1.79-5.51l4.18-12h4.06l-8.4,21.36h-3.71L1426.19,150Z"/><path d="M1452.58,161.34c.07,5.25,3.41,7.41,7.3,7.41a14.34,14.34,0,0,0,5.92-1.09l.68,2.76a17.23,17.23,0,0,1-7.12,1.36c-6.57,0-10.51-4.37-10.51-10.78s3.81-11.52,10.05-11.52c7,0,8.79,6.11,8.79,10a9,9,0,0,1-.14,1.82Zm11.36-2.79c0-2.45-1-6.29-5.35-6.29-4,0-5.66,3.58-6,6.29Z"/><path d="M1472.83,156.61c0-2.52-.07-4.67-.18-6.65h3.41l.14,4.19h.14a6.49,6.49,0,0,1,6-4.67,4.12,4.12,0,0,1,1.08.11v3.65a5.81,5.81,0,0,0-1.32-.11c-2.74,0-4.67,2.06-5.2,5a10.45,10.45,0,0,0-.16,1.82v11.41h-3.86Z"/><path d="M1487,167.36a10.62,10.62,0,0,0,5.15,1.52c2.84,0,4.15-1.39,4.15-3.18s-1.13-2.84-4-3.91c-3.85-1.39-5.68-3.49-5.67-6,0-3.44,2.79-6.26,7.39-6.26a10.3,10.3,0,0,1,5.23,1.31l-1,2.82a8.43,8.43,0,0,0-4.38-1.25c-2.29,0-3.54,1.32-3.54,2.93,0,1.76,1.26,2.55,4.06,3.64,3.68,1.37,5.59,3.23,5.6,6.42,0,3.78-2.94,6.43-8,6.43a12.12,12.12,0,0,1-6-1.49Z"/><path d="M1509.72,143.92a2.34,2.34,0,0,1-2.47,2.42,2.32,2.32,0,0,1-2.35-2.42,2.36,2.36,0,0,1,2.42-2.41A2.32,2.32,0,0,1,1509.72,143.92Zm-4.34,27.4V150h3.86v21.36Z"/><path d="M1534.45,140v25.85c0,1.9.08,4,.18,5.51h-3.45l-.2-3.7h-.1a7.82,7.82,0,0,1-7.25,4.18c-5.17,0-9.16-4.37-9.16-10.85,0-7.14,4.39-11.47,9.59-11.47,3.28,0,5.49,1.53,6.44,3.24h.09V140Zm-3.86,18.69a7.85,7.85,0,0,0-.16-1.66,5.75,5.75,0,0,0-5.63-4.47c-4,0-6.42,3.53-6.42,8.22,0,4.34,2.16,7.94,6.35,7.94a5.86,5.86,0,0,0,5.67-4.66,6.28,6.28,0,0,0,.19-1.67Z"/><path d="M1553.08,171.32l-.35-2.7h-.11a7.94,7.94,0,0,1-6.54,3.18c-4.31,0-6.52-3.06-6.52-6.13,0-5.17,4.59-8,12.84-7.95v-.45c0-1.74-.49-5-4.87-4.93a10.39,10.39,0,0,0-5.56,1.59l-.88-2.58a13.43,13.43,0,0,1,7.05-1.87c6.52,0,8.12,4.46,8.12,8.74v8a33.4,33.4,0,0,0,.32,5.11Zm-.61-10.91c-4.2-.09-9,.67-9,4.8a3.41,3.41,0,0,0,3.62,3.72,5.34,5.34,0,0,0,5.21-3.58,4.15,4.15,0,0,0,.18-1.22Z"/><path d="M1581.26,140v25.85c0,1.9.07,4,.18,5.51H1578l-.19-3.7h-.11a7.81,7.81,0,0,1-7.24,4.18c-5.18,0-9.17-4.37-9.17-10.85,0-7.14,4.4-11.47,9.6-11.47,3.28,0,5.48,1.53,6.44,3.24h.09V140Zm-3.86,18.69a8.56,8.56,0,0,0-.16-1.66,5.75,5.75,0,0,0-5.63-4.47c-4,0-6.42,3.53-6.42,8.22,0,4.34,2.15,7.94,6.34,7.94a5.87,5.87,0,0,0,5.68-4.66,6.28,6.28,0,0,0,.19-1.67Z"/><path d="M1597.83,141.92a42,42,0,0,1,7.39-.6c3.78,0,6.57.88,8.35,2.48a8.1,8.1,0,0,1,2.61,6.23,8.77,8.77,0,0,1-2.31,6.37c-2,2.17-5.34,3.26-9.09,3.26a12.74,12.74,0,0,1-3.11-.28v11.94h-3.84Zm3.84,14.33a11.67,11.67,0,0,0,3.18.33c4.67,0,7.48-2.28,7.48-6.35s-2.81-5.87-7-5.87a18,18,0,0,0-3.63.31Z"/><path d="M1640.84,160.43c0,7.91-5.48,11.37-10.62,11.37-5.79,0-10.26-4.22-10.26-11,0-7.15,4.7-11.32,10.6-11.32C1636.7,149.48,1640.84,153.93,1640.84,160.43Zm-16.93.25c0,4.69,2.68,8.21,6.47,8.21s6.51-3.48,6.51-8.32c0-3.62-1.82-8.18-6.44-8.18S1623.91,156.63,1623.91,160.68Z"/><path d="M1646.07,140h3.86v31.36h-3.86Z"/><path d="M1661.13,143.92a2.41,2.41,0,1,1-4.81,0,2.36,2.36,0,0,1,2.42-2.41A2.31,2.31,0,0,1,1661.13,143.92Zm-4.33,27.4V150h3.86v21.36Z"/><path d="M1672.1,143.81V150h5.58v2.94h-5.58v11.51c0,2.66.76,4.17,2.94,4.17a8,8,0,0,0,2.25-.28l.17,2.95a10.08,10.08,0,0,1-3.47.53,5.46,5.46,0,0,1-4.19-1.64c-1.07-1.18-1.51-3.07-1.51-5.57V152.9H1665V150h3.3v-5.14Z"/><path d="M1684.54,161.34c.07,5.25,3.4,7.41,7.3,7.41a14.34,14.34,0,0,0,5.92-1.09l.68,2.76a17.24,17.24,0,0,1-7.13,1.36c-6.56,0-10.5-4.37-10.5-10.78s3.81-11.52,10-11.52c7,0,8.78,6.11,8.78,10a9.16,9.16,0,0,1-.13,1.82Zm11.36-2.79c0-2.45-1-6.29-5.35-6.29-4,0-5.66,3.58-6,6.29Zm.91-17.85-5.39,6.32h-2.75l3.87-6.32Z"/><path d="M1720,170.54a14.69,14.69,0,0,1-6.12,1.24c-6.45,0-10.66-4.38-10.66-10.91s4.49-11.39,11.47-11.39a12.5,12.5,0,0,1,5.4,1.14l-.86,3a9.54,9.54,0,0,0-4.54-1c-4.88,0-7.55,3.65-7.54,8.08,0,5,3.18,8,7.44,8a11.31,11.31,0,0,0,4.75-1Z"/><path d="M1724.89,155.73c0-2.23-.08-4-.18-5.77h3.43l.22,3.51h.1a7.9,7.9,0,0,1,7.07-4c2.93,0,7.52,1.76,7.52,9.1v12.74h-3.86V159c0-3.45-1.3-6.34-4.94-6.34a5.58,5.58,0,0,0-5.23,4,6,6,0,0,0-.27,1.8v12.87h-3.86Z"/><path d="M1754,143.92a2.41,2.41,0,1,1-2.4-2.41A2.33,2.33,0,0,1,1754,143.92Zm-4.34,27.4V150h3.87v21.36Z"/><path d="M1775.57,170.54a14.69,14.69,0,0,1-6.12,1.24c-6.45,0-10.66-4.38-10.66-10.91s4.49-11.39,11.47-11.39a12.5,12.5,0,0,1,5.4,1.14l-.86,3a9.54,9.54,0,0,0-4.54-1c-4.88,0-7.55,3.65-7.54,8.08,0,5,3.18,8,7.44,8a11.31,11.31,0,0,0,4.75-1Z"/><path d="M1792.28,171.32l-.35-2.7h-.11a7.94,7.94,0,0,1-6.54,3.18c-4.31,0-6.52-3.06-6.52-6.13,0-5.17,4.59-8,12.84-7.95v-.45c0-1.74-.49-5-4.87-4.93a10.39,10.39,0,0,0-5.56,1.59l-.88-2.58a13.43,13.43,0,0,1,7-1.87c6.53,0,8.12,4.46,8.12,8.74v8a33.4,33.4,0,0,0,.32,5.11Zm-.61-10.91c-4.2-.09-9,.67-9,4.8a3.42,3.42,0,0,0,3.62,3.72,5.34,5.34,0,0,0,5.21-3.58,4.15,4.15,0,0,0,.18-1.22Z"/><path d="M1817.49,144.8h-9.06v-3.25h22v3.25h-9.11v26.52h-3.87Z"/><path d="M1836.13,161.34c.07,5.25,3.41,7.41,7.31,7.41a14.25,14.25,0,0,0,5.91-1.09l.68,2.76a17.23,17.23,0,0,1-7.12,1.36c-6.57,0-10.51-4.37-10.51-10.78s3.81-11.52,10-11.52c7,0,8.79,6.11,8.79,10a9,9,0,0,1-.14,1.82Zm11.37-2.79c0-2.45-1-6.29-5.36-6.29-4,0-5.65,3.58-6,6.29Z"/><path d="M1856.38,156.61c0-2.52-.06-4.67-.18-6.65h3.41l.14,4.19h.14a6.49,6.49,0,0,1,5.95-4.67,4.08,4.08,0,0,1,1.08.11v3.65a5.81,5.81,0,0,0-1.32-.11c-2.74,0-4.67,2.06-5.2,5a10.45,10.45,0,0,0-.16,1.82v11.41h-3.86Z"/><path d="M1871.13,156.61c0-2.52-.07-4.67-.18-6.65h3.41l.14,4.19h.14a6.49,6.49,0,0,1,5.95-4.67,4.12,4.12,0,0,1,1.08.11v3.65a5.81,5.81,0,0,0-1.32-.11c-2.74,0-4.67,2.06-5.2,5a10.45,10.45,0,0,0-.16,1.82v11.41h-3.86Z"/><path d="M1890.22,143.92a2.41,2.41,0,1,1-2.4-2.41A2.33,2.33,0,0,1,1890.22,143.92Zm-4.34,27.4V150h3.87v21.36Z"/><path d="M1901.19,143.81V150h5.58v2.94h-5.58v11.51c0,2.66.76,4.17,2.93,4.17a8.11,8.11,0,0,0,2.26-.28l.17,2.95a10.08,10.08,0,0,1-3.47.53,5.45,5.45,0,0,1-4.19-1.64c-1.07-1.18-1.51-3.07-1.51-5.57V152.9h-3.31V150h3.31v-5.14Z"/><path d="M1930.78,160.43c0,7.91-5.49,11.37-10.62,11.37-5.79,0-10.27-4.22-10.27-11,0-7.15,4.7-11.32,10.61-11.32C1926.64,149.48,1930.78,153.93,1930.78,160.43Zm-16.93.25c0,4.69,2.68,8.21,6.47,8.21s6.51-3.48,6.51-8.32c0-3.62-1.82-8.18-6.44-8.18S1913.85,156.63,1913.85,160.68Z"/><path d="M1936,156.61c0-2.52-.06-4.67-.17-6.65h3.4l.15,4.19h.14a6.49,6.49,0,0,1,6-4.67,4.12,4.12,0,0,1,1.08.11v3.65a5.85,5.85,0,0,0-1.33-.11c-2.73,0-4.67,2.06-5.19,5a10.45,10.45,0,0,0-.16,1.82v11.41H1936Z"/><path d="M1962.59,171.32l-.34-2.7h-.12a7.92,7.92,0,0,1-6.53,3.18c-4.31,0-6.52-3.06-6.52-6.13,0-5.17,4.58-8,12.83-7.95v-.45c0-1.74-.49-5-4.86-4.93a10.34,10.34,0,0,0-5.56,1.59l-.89-2.58a13.46,13.46,0,0,1,7.05-1.87c6.53,0,8.12,4.46,8.12,8.74v8a34.72,34.72,0,0,0,.32,5.11Zm-.6-10.91c-4.21-.09-9,.67-9,4.8a3.42,3.42,0,0,0,3.63,3.72,5.34,5.34,0,0,0,5.2-3.58,3.86,3.86,0,0,0,.19-1.22Z"/><path d="M1972.34,140h3.87v31.36h-3.87Z"/><path d="M1390,190v25.85c0,1.9.07,4,.18,5.51h-3.46l-.19-3.7h-.11a7.81,7.81,0,0,1-7.24,4.18c-5.18,0-9.17-4.37-9.17-10.85,0-7.14,4.4-11.47,9.6-11.47,3.28,0,5.48,1.53,6.44,3.24h.09V190Zm-3.86,18.69a8.56,8.56,0,0,0-.16-1.66,5.75,5.75,0,0,0-5.63-4.47c-4,0-6.43,3.53-6.43,8.22,0,4.34,2.16,7.94,6.35,7.94a5.87,5.87,0,0,0,5.68-4.66,6.28,6.28,0,0,0,.19-1.67Z"/><path d="M1398.9,211.34c.08,5.25,3.41,7.41,7.31,7.41a14.34,14.34,0,0,0,5.92-1.09l.68,2.76a17.24,17.24,0,0,1-7.13,1.36c-6.56,0-10.5-4.37-10.5-10.78s3.81-11.52,10-11.52c7,0,8.79,6.11,8.79,10a9.16,9.16,0,0,1-.13,1.82Zm11.37-2.79c0-2.45-1-6.29-5.35-6.29-4,0-5.66,3.58-6,6.29Z"/><path d="M1419.16,190H1423v31.36h-3.87Z"/><path d="M1455.08,207.36h-11.54v10.75h12.91v3.21h-16.77V191.55h16.09v3.21h-12.23v9.42h11.54Z"/><path d="M1461.05,217.36a10.58,10.58,0,0,0,5.15,1.52c2.83,0,4.15-1.39,4.15-3.18s-1.13-2.84-4-3.91c-3.86-1.39-5.69-3.49-5.68-6,0-3.44,2.8-6.26,7.39-6.26a10.3,10.3,0,0,1,5.23,1.31l-1,2.82a8.5,8.5,0,0,0-4.39-1.25c-2.29,0-3.53,1.32-3.53,2.93,0,1.76,1.25,2.55,4,3.64,3.68,1.37,5.6,3.23,5.61,6.42,0,3.78-2.95,6.43-8,6.43a12.09,12.09,0,0,1-6-1.49Z"/><path d="M1484.05,193.81V200h5.59v2.94h-5.59v11.51c0,2.66.77,4.17,2.94,4.17a8,8,0,0,0,2.25-.28l.18,2.95a10.08,10.08,0,0,1-3.47.53,5.45,5.45,0,0,1-4.19-1.64c-1.07-1.18-1.51-3.07-1.51-5.57V202.9h-3.31V200h3.31v-5.14Z"/><path d="M1506.16,221.32l-.34-2.7h-.12a7.92,7.92,0,0,1-6.53,3.18c-4.32,0-6.53-3.06-6.53-6.13,0-5.17,4.59-8,12.84-7.95v-.45c0-1.74-.49-5-4.86-4.93a10.4,10.4,0,0,0-5.57,1.59l-.88-2.58a13.46,13.46,0,0,1,7-1.87c6.53,0,8.12,4.46,8.12,8.74v8a33.4,33.4,0,0,0,.32,5.11Zm-.6-10.91c-4.21-.09-9,.67-9,4.8a3.42,3.42,0,0,0,3.63,3.72,5.34,5.34,0,0,0,5.2-3.58,3.86,3.86,0,0,0,.19-1.22Z"/><path d="M1534.34,190v25.85c0,1.9.08,4,.18,5.51h-3.45l-.2-3.7h-.1a7.82,7.82,0,0,1-7.25,4.18c-5.17,0-9.16-4.37-9.16-10.85,0-7.14,4.39-11.47,9.59-11.47,3.28,0,5.49,1.53,6.44,3.24h.09V190Zm-3.86,18.69a7.85,7.85,0,0,0-.16-1.66,5.74,5.74,0,0,0-5.62-4.47c-4,0-6.43,3.53-6.43,8.22,0,4.34,2.16,7.94,6.35,7.94a5.85,5.85,0,0,0,5.67-4.66,6.28,6.28,0,0,0,.19-1.67Z"/><path d="M1560.46,210.43c0,7.91-5.49,11.37-10.62,11.37-5.8,0-10.27-4.22-10.27-11,0-7.15,4.7-11.32,10.61-11.32C1556.32,199.48,1560.46,203.93,1560.46,210.43Zm-16.94.25c0,4.69,2.69,8.21,6.48,8.21s6.5-3.48,6.5-8.32c0-3.62-1.82-8.18-6.43-8.18S1543.52,206.63,1543.52,210.68Z"/><path d="M1575.46,191.55h3.86v26.52h12.73v3.25h-16.59Z"/><path d="M1608.34,221.32l-.34-2.7h-.12a7.92,7.92,0,0,1-6.53,3.18c-4.32,0-6.53-3.06-6.53-6.13,0-5.17,4.59-8,12.84-7.95v-.45c0-1.74-.49-5-4.86-4.93a10.4,10.4,0,0,0-5.57,1.59l-.88-2.58a13.46,13.46,0,0,1,7.05-1.87c6.53,0,8.12,4.46,8.12,8.74v8a33.4,33.4,0,0,0,.32,5.11Zm-.6-10.91c-4.21-.09-9,.67-9,4.8a3.42,3.42,0,0,0,3.63,3.72,5.34,5.34,0,0,0,5.2-3.58,3.86,3.86,0,0,0,.19-1.22Z"/><path d="M1618.08,206.61c0-2.52-.06-4.67-.17-6.65h3.4l.15,4.19h.14a6.47,6.47,0,0,1,5.94-4.67,4.15,4.15,0,0,1,1.09.11v3.65a5.85,5.85,0,0,0-1.33-.11c-2.73,0-4.67,2.06-5.19,5a9.56,9.56,0,0,0-.16,1.82v11.41h-3.87Z"/><path d="M1644.68,221.32l-.34-2.7h-.12a7.92,7.92,0,0,1-6.53,3.18c-4.32,0-6.52-3.06-6.52-6.13,0-5.17,4.58-8,12.83-7.95v-.45c0-1.74-.49-5-4.86-4.93a10.4,10.4,0,0,0-5.57,1.59l-.88-2.58a13.46,13.46,0,0,1,7-1.87c6.53,0,8.12,4.46,8.12,8.74v8a33.4,33.4,0,0,0,.32,5.11Zm-.6-10.91c-4.21-.09-9,.67-9,4.8a3.42,3.42,0,0,0,3.63,3.72,5.34,5.34,0,0,0,5.2-3.58,3.86,3.86,0,0,0,.19-1.22Z"/><path d="M1670.7,213.67l-2.1,7.65h-7l9.08-29.77h8.81l9.27,29.77h-7.25l-2.29-7.65Zm7.56-5-1.85-6.32c-.51-1.76-1-4-1.5-5.73h-.09c-.44,1.75-.89,4-1.36,5.73l-1.78,6.32Z"/><path d="M1693.5,206.61c0-2.69-.08-5-.18-6.91h5.83l.31,3h.14a7.83,7.83,0,0,1,6.68-3.48c4.42,0,7.74,2.94,7.74,9.3v12.8h-6.73v-12c0-2.79-1-4.69-3.42-4.69a3.63,3.63,0,0,0-3.41,2.53,4.92,4.92,0,0,0-.23,1.67v12.47h-6.73Z"/><path d="M1741.28,190v24.9c0,2.45.08,5,.17,6.46h-6l-.28-3.17h-.1a7.51,7.51,0,0,1-6.76,3.65c-5.1,0-9.23-4.38-9.23-11.1,0-7.25,4.53-11.48,9.68-11.48,2.67,0,4.71.95,5.68,2.44h.09V190Zm-6.72,18.92a7.16,7.16,0,0,0-.09-1.22,4,4,0,0,0-3.9-3.29c-3.08,0-4.64,2.73-4.64,6.14,0,3.64,1.8,5.94,4.6,5.94a4,4,0,0,0,3.88-3.22,6.23,6.23,0,0,0,.15-1.52Z"/><path d="M1747.63,206.83c0-3.18-.05-5.27-.17-7.13h5.77l.25,4h.16a6.32,6.32,0,0,1,5.83-4.48,5.82,5.82,0,0,1,1.44.12v6.32a8.26,8.26,0,0,0-1.82-.19,4.32,4.32,0,0,0-4.6,3.42,7.45,7.45,0,0,0-.13,1.49v10.94h-6.73Z"/><path d="M1770.57,212.67c.2,2.79,3,4.11,6.09,4.11a18,18,0,0,0,5.94-.91l.91,4.54a20.76,20.76,0,0,1-7.83,1.37c-7.32,0-11.53-4.26-11.53-11,0-5.49,3.43-11.56,10.9-11.56,7,0,9.65,5.44,9.65,10.79a12.82,12.82,0,0,1-.24,2.66Zm7.88-4.6c0-1.62-.71-4.38-3.76-4.38-2.84,0-4,2.59-4.18,4.38Zm3.71-17.75-5.4,6.71h-4.6l3.8-6.71Z"/><path d="M1789.65,215.46a13.06,13.06,0,0,0,5.76,1.61c2,0,2.89-.68,2.89-1.79s-.69-1.66-3.17-2.5c-4.49-1.47-6.18-3.92-6.16-6.46,0-4,3.43-7.1,8.79-7.1a14.25,14.25,0,0,1,6.09,1.26l-1.17,4.62a11.07,11.07,0,0,0-4.69-1.22c-1.64,0-2.57.66-2.57,1.75s.85,1.58,3.5,2.49c4.1,1.39,5.82,3.5,5.85,6.66,0,4-3.15,7-9.34,7a15.49,15.49,0,0,1-7-1.52Z"/><path d="M1837.62,208.73h-10.95v7.07h12.25v5.52h-19V191.55h18.34v5.52h-11.61v6.2h10.95Z"/><path d="M1844.25,190H1851v31.36h-6.73Z"/><path d="M1878.69,210.29c0,7.9-5.6,11.51-11.4,11.51-6.28,0-11.16-4.15-11.16-11.13s4.61-11.45,11.55-11.45C1874.29,199.22,1878.69,203.77,1878.69,210.29Zm-15.63.23c0,3.68,1.56,6.48,4.42,6.48,2.62,0,4.28-2.62,4.28-6.52,0-3.19-1.23-6.46-4.27-6.46C1864.28,204,1863.06,207.31,1863.06,210.52Z"/><path d="M1888.84,199.7l3.23,10.63c.37,1.26.79,2.88,1.08,4h.14c.3-1.16.64-2.77,1-4l2.66-10.62h7.17l-5,14.23c-3.1,8.58-5.17,12-7.61,14.17a12,12,0,0,1-6.47,3l-1.44-5.67a9.68,9.68,0,0,0,2.92-1.14,7.54,7.54,0,0,0,2.77-2.7,1.87,1.87,0,0,0,.38-1,2.64,2.64,0,0,0-.3-1.11l-7.92-19.78Z"/><path d="M1918,192a54.36,54.36,0,0,1,8.68-.64c4.1,0,6.63.41,8.8,1.67a6.46,6.46,0,0,1,3.55,5.87c0,2.62-1.53,5.09-4.89,6.33v.11a7.42,7.42,0,0,1,5.93,7.3,7.88,7.88,0,0,1-3.1,6.32c-2.18,1.75-5.77,2.71-11.7,2.71a51.87,51.87,0,0,1-7.27-.44Zm6.67,11.4h2.18c3.56,0,5.42-1.48,5.42-3.69s-1.71-3.46-4.75-3.46a14.52,14.52,0,0,0-2.85.21Zm0,13.17a16.39,16.39,0,0,0,2.58.12c3,0,5.74-1.18,5.74-4.32,0-3-2.67-4.17-6-4.17h-2.3Z"/><path d="M1945.42,190h6.73v31.36h-6.73Z"/><path d="M1970.83,221.32l-.4-2.15h-.14a7.74,7.74,0,0,1-6.17,2.63,6.6,6.6,0,0,1-7-6.61c0-5.63,5-8.3,12.69-8.29v-.28c0-1.14-.62-2.79-4-2.78a12.5,12.5,0,0,0-6,1.61l-1.24-4.3a17.56,17.56,0,0,1,8.41-1.93c7.19,0,9.47,4.25,9.47,9.33v7.53a32,32,0,0,0,.34,5.24ZM1970,211.1c-3.54,0-6.27.83-6.27,3.4a2.43,2.43,0,0,0,2.67,2.59,3.67,3.67,0,0,0,3.47-2.48,4.36,4.36,0,0,0,.13-1.15Z"/><path d="M1982.82,206.61c0-2.69-.08-5-.18-6.91h5.83l.31,3h.14a7.83,7.83,0,0,1,6.68-3.48c4.42,0,7.74,2.94,7.74,9.3v12.8h-6.73v-12c0-2.79-1-4.69-3.42-4.69a3.63,3.63,0,0,0-3.41,2.53,4.92,4.92,0,0,0-.23,1.67v12.47h-6.73Z"/><path d="M2025.89,220.78a16.06,16.06,0,0,1-6,1c-7,0-11.44-4.27-11.44-11.06,0-6.32,4.33-11.49,12.36-11.49a15.49,15.49,0,0,1,5.13.86l-1.05,5a9.07,9.07,0,0,0-3.76-.69c-3.55,0-5.83,2.52-5.8,6.06,0,4,2.66,6.07,5.91,6.07a10,10,0,0,0,3.87-.7Z"/><path d="M2051.87,210.29c0,7.9-5.59,11.51-11.39,11.51-6.29,0-11.16-4.15-11.16-11.13s4.6-11.45,11.55-11.45C2047.48,199.22,2051.87,203.77,2051.87,210.29Zm-15.62.23c0,3.68,1.55,6.48,4.42,6.48,2.62,0,4.28-2.62,4.28-6.52,0-3.19-1.23-6.46-4.28-6.46C2037.47,204,2036.25,207.31,2036.25,210.52Z"/><path d="M578.43,208.36c0-3.5-.09-6.35-.23-8.94h4.46l.28,4.67h.11a10.73,10.73,0,0,1,9.74-5.3c6.65,0,11.65,5.6,11.65,13.93,0,9.89-6.05,14.76-12.48,14.76a9.58,9.58,0,0,1-8.46-4.32h-.11V238.1h-5Zm5,7.33a8.9,8.9,0,0,0,.22,2,7.66,7.66,0,0,0,7.46,5.85c5.29,0,8.34-4.34,8.34-10.63,0-5.47-2.87-10.18-8.15-10.18a7.92,7.92,0,0,0-7.55,6.16,8.77,8.77,0,0,0-.32,2Z"/><path d="M624.81,226.86l-.44-3.47h-.15a10.16,10.16,0,0,1-8.39,4.09c-5.55,0-8.39-3.93-8.39-7.87,0-6.65,5.9-10.3,16.5-10.22v-.59c0-2.23-.63-6.36-6.25-6.33a13.28,13.28,0,0,0-7.15,2.05l-1.13-3.32a17.19,17.19,0,0,1,9.05-2.41c8.39,0,10.44,5.74,10.44,11.24v10.26a43.89,43.89,0,0,0,.41,6.57Zm-.77-14c-5.41-.12-11.59.85-11.59,6.16a4.4,4.4,0,0,0,4.66,4.78,6.88,6.88,0,0,0,6.69-4.6,5.26,5.26,0,0,0,.24-1.57Z"/><path d="M635.81,208c0-3.24-.08-6-.23-8.54H640l.19,5.38h.18c1.28-3.68,4.31-6,7.64-6a6,6,0,0,1,1.39.14v4.7a7.72,7.72,0,0,0-1.7-.15c-3.51,0-6,2.65-6.68,6.39a13.13,13.13,0,0,0-.2,2.33v14.66h-5Z"/><path d="M668.46,226.86l-.44-3.47h-.15a10.2,10.2,0,0,1-8.4,4.09c-5.54,0-8.38-3.93-8.38-7.87,0-6.65,5.89-10.3,16.49-10.22v-.59c0-2.23-.63-6.36-6.25-6.33a13.33,13.33,0,0,0-7.15,2.05l-1.13-3.32a17.23,17.23,0,0,1,9.06-2.41c8.39,0,10.43,5.74,10.43,11.24v10.26a42.52,42.52,0,0,0,.42,6.57Zm-.78-14c-5.4-.12-11.59.85-11.59,6.16a4.4,4.4,0,0,0,4.66,4.78,6.87,6.87,0,0,0,6.69-4.6,5,5,0,0,0,.24-1.57Z"/><path d="M690.36,186.57h5v40.29h-5Z"/><path d="M717.83,226.86l-.44-3.47h-.15a10.16,10.16,0,0,1-8.39,4.09c-5.55,0-8.39-3.93-8.39-7.87,0-6.65,5.89-10.3,16.5-10.22v-.59c0-2.23-.63-6.36-6.25-6.33a13.28,13.28,0,0,0-7.15,2.05l-1.13-3.32a17.19,17.19,0,0,1,9.05-2.41c8.39,0,10.44,5.74,10.44,11.24v10.26a42.6,42.6,0,0,0,.41,6.57Zm-.78-14c-5.4-.12-11.58.85-11.58,6.16a4.4,4.4,0,0,0,4.66,4.78,6.88,6.88,0,0,0,6.69-4.6,5.24,5.24,0,0,0,.23-1.57Z"/><path d="M773,210.68H758.89v9.1h15.73v7.08H750.24V188.61H773.8v7.09H758.89v8H773Z"/><path d="M805.6,186.57v32c0,3.16.11,6.44.23,8.3h-7.68l-.36-4.07h-.12a9.67,9.67,0,0,1-8.7,4.69c-6.55,0-11.85-5.62-11.85-14.26,0-9.32,5.81-14.76,12.43-14.76,3.43,0,6.06,1.22,7.3,3.14H797v-15ZM797,210.87a8.25,8.25,0,0,0-.11-1.56,5.12,5.12,0,0,0-5-4.22c-4,0-6,3.51-6,7.88,0,4.68,2.31,7.63,5.9,7.63a5.09,5.09,0,0,0,5-4.14,8.62,8.62,0,0,0,.18-2Z"/><path d="M837.16,218c0,3.61.1,6.59.22,8.9h-7.49l-.39-3.92h-.18a9.85,9.85,0,0,1-8.66,4.54c-5.64,0-9.76-3.52-9.76-12.06V199.08h8.65V214c0,4.07,1.31,6.5,4.35,6.5a4.59,4.59,0,0,0,4.29-3,4.64,4.64,0,0,0,.32-1.83V199.08h8.65Z"/><path d="M863.39,226.16a20.27,20.27,0,0,1-7.73,1.3c-9,0-14.69-5.5-14.69-14.22,0-8.12,5.55-14.76,15.88-14.76a20,20,0,0,1,6.59,1.1L862.09,206a11.72,11.72,0,0,0-4.83-.88c-4.57,0-7.49,3.24-7.46,7.78,0,5.1,3.42,7.81,7.6,7.81a12.93,12.93,0,0,0,5-.9Z"/><path d="M882.42,226.86l-.51-2.76h-.18a10,10,0,0,1-7.94,3.38c-5.65,0-9-4.06-9-8.49,0-7.24,6.47-10.67,16.29-10.66V208c0-1.48-.79-3.59-5.08-3.58a16,16,0,0,0-7.66,2.08L866.78,201a22.44,22.44,0,0,1,10.8-2.49c9.25,0,12.17,5.47,12.17,12v9.68a40.42,40.42,0,0,0,.44,6.73Zm-1-13.13c-4.54,0-8,1.07-8,4.37a3.11,3.11,0,0,0,3.42,3.33,4.72,4.72,0,0,0,4.47-3.19,5.56,5.56,0,0,0,.16-1.48Z"/><path d="M915.89,226.16a20.29,20.29,0,0,1-7.74,1.3c-9,0-14.69-5.5-14.69-14.22,0-8.12,5.56-14.76,15.88-14.76a19.91,19.91,0,0,1,6.59,1.1L914.59,206a11.72,11.72,0,0,0-4.83-.88c-4.57,0-7.5,3.24-7.46,7.78,0,5.1,3.42,7.81,7.6,7.81a12.84,12.84,0,0,0,5-.9Z"/><path d="M928,191.37c0,2.41-1.76,4.32-4.64,4.32a4.33,4.33,0,1,1,4.64-4.32Zm-8.89,35.49V199.08h8.65v27.78Z"/><path d="M960.52,212.69c0,10.15-7.19,14.79-14.63,14.79-8.08,0-14.34-5.34-14.34-14.31s5.91-14.71,14.83-14.71C954.88,198.46,960.52,204.31,960.52,212.69Zm-20.08.29c0,4.74,2,8.34,5.69,8.34,3.36,0,5.49-3.37,5.49-8.39,0-4.09-1.57-8.3-5.49-8.3C942,204.63,940.44,208.86,940.44,213ZM955.07,187l-6.94,8.62h-5.91L947.1,187Z"/><path d="M964.34,208c0-3.46-.1-6.39-.22-8.88h7.49l.4,3.85h.18a10,10,0,0,1,8.58-4.47c5.67,0,9.94,3.78,9.94,12v16.44h-8.65V211.47c0-3.58-1.27-6-4.39-6a4.67,4.67,0,0,0-4.38,3.26,6.19,6.19,0,0,0-.3,2.13v16h-8.65Z"/><path d="M1014.9,188.61v22c0,6.61,2.54,10,6.93,10,4.55,0,7-3.2,7-10v-22h8.65v21.47c0,11.8-6,17.4-16,17.4-9.65,0-15.28-5.35-15.28-17.51V188.61Z"/><path d="M1043.18,208c0-3.46-.11-6.39-.23-8.88h7.49l.4,3.85h.18a10.05,10.05,0,0,1,8.58-4.47c5.67,0,9.94,3.78,9.94,12v16.44h-8.64V211.47c0-3.58-1.28-6-4.4-6a4.67,4.67,0,0,0-4.38,3.26,6.19,6.19,0,0,0-.3,2.13v16h-8.64Z"/><path d="M1083.79,191.37c0,2.41-1.76,4.32-4.64,4.32a4.33,4.33,0,1,1,4.64-4.32Zm-8.89,35.49V199.08h8.65v27.78Z"/><path d="M1095.36,199.08l3.73,12.92c.68,2.34,1.16,4.53,1.59,6.76h.19c.43-2.3.9-4.37,1.53-6.76l3.57-12.92h9.08l-10.34,27.78h-8.62L1086,199.08Z"/><path d="M1124.12,215.75c.26,3.58,3.8,5.28,7.83,5.28a23.26,23.26,0,0,0,7.64-1.17l1.17,5.84a27,27,0,0,1-10.07,1.76c-9.41,0-14.81-5.48-14.81-14.14,0-7.06,4.4-14.86,14-14.86,9,0,12.4,7,12.4,13.87a16.07,16.07,0,0,1-.31,3.42Zm10.14-5.92c0-2.08-.92-5.63-4.85-5.63-3.64,0-5.12,3.34-5.36,5.63Z"/><path d="M1145.9,208.24c0-4.08-.08-6.76-.23-9.16h7.42l.31,5.15h.22a8.12,8.12,0,0,1,7.49-5.77,7.5,7.5,0,0,1,1.85.16v8.12a10.8,10.8,0,0,0-2.34-.24c-3.17,0-5.33,1.68-5.92,4.38a11.14,11.14,0,0,0-.16,1.93v14.05h-8.64Z"/><path d="M1165.9,219.34a16.87,16.87,0,0,0,7.4,2.06c2.61,0,3.72-.88,3.72-2.29s-.88-2.14-4.07-3.21c-5.78-1.9-8-5-7.92-8.31,0-5.21,4.4-9.13,11.29-9.13a18.36,18.36,0,0,1,7.83,1.62l-1.51,5.95a14.08,14.08,0,0,0-6-1.57c-2.11,0-3.32.84-3.32,2.24s1.1,2,4.51,3.2c5.27,1.79,7.48,4.5,7.51,8.55,0,5.19-4,9-12,9a19.81,19.81,0,0,1-9-2Z"/><path d="M1197.92,191.37c0,2.41-1.76,4.32-4.64,4.32a4.33,4.33,0,1,1,4.64-4.32ZM1189,226.86V199.08h8.65v27.78Z"/><path d="M1212.68,191.16v7.92h6.22v6.37h-6.22v10.07c0,3.35.83,4.89,3.41,4.89a11.3,11.3,0,0,0,2.56-.26l.07,6.56a17.88,17.88,0,0,1-5.59.75,9,9,0,0,1-6.51-2.41c-1.6-1.65-2.39-4.29-2.39-8.24V205.45h-3.69v-6.37h3.69v-6Z"/><path d="M1238.15,226.86l-.51-2.76h-.18a10,10,0,0,1-7.94,3.38c-5.65,0-9-4.06-9-8.49,0-7.24,6.47-10.67,16.3-10.66V208c0-1.48-.8-3.59-5.09-3.58a15.93,15.93,0,0,0-7.65,2.08l-1.59-5.53a22.4,22.4,0,0,1,10.79-2.49c9.25,0,12.17,5.47,12.17,12v9.68a39.21,39.21,0,0,0,.45,6.73Zm-1.05-13.13c-4.54,0-8,1.07-8,4.37a3.11,3.11,0,0,0,3.43,3.33,4.7,4.7,0,0,0,4.46-3.19,5.56,5.56,0,0,0,.16-1.48Z"/><path d="M1250.78,208.24c0-4.08-.08-6.76-.23-9.16H1258l.31,5.15h.22a8.12,8.12,0,0,1,7.49-5.77,7.5,7.5,0,0,1,1.85.16v8.12a10.8,10.8,0,0,0-2.34-.24c-3.17,0-5.33,1.68-5.92,4.38a11.14,11.14,0,0,0-.16,1.93v14.05h-8.64Z"/><path d="M1279.7,191.37c0,2.41-1.76,4.32-4.64,4.32a4.33,4.33,0,1,1,4.64-4.32Zm-8.89,35.49V199.08h8.65v27.78Z"/><path d="M1300.64,226.86l-.51-2.76h-.19a10,10,0,0,1-7.93,3.38c-5.65,0-9-4.06-9-8.49,0-7.24,6.48-10.67,16.3-10.66V208c0-1.48-.79-3.59-5.08-3.58a16,16,0,0,0-7.66,2.08L1285,201a22.44,22.44,0,0,1,10.8-2.49c9.24,0,12.17,5.47,12.17,12v9.68a40.42,40.42,0,0,0,.44,6.73Zm-1.05-13.13c-4.54,0-8.06,1.07-8.06,4.37a3.12,3.12,0,0,0,3.43,3.33,4.73,4.73,0,0,0,4.47-3.19,5.56,5.56,0,0,0,.16-1.48Z"/><path d="M233.42,146.38a76.65,76.65,0,0,1,12.25-.9c5.78,0,9.34.57,12.41,2.35a9.12,9.12,0,0,1,5,8.28c0,3.69-2.17,7.17-6.9,8.93v.16c4.8,1.25,8.36,4.91,8.36,10.29a11.12,11.12,0,0,1-4.37,8.91c-3.08,2.47-8.14,3.82-16.5,3.82a71.87,71.87,0,0,1-10.26-.62Zm9.4,16.07h3.08c5,0,7.65-2.08,7.65-5.2s-2.41-4.87-6.7-4.87a20.35,20.35,0,0,0-4,.29Zm0,18.58a23.87,23.87,0,0,0,3.64.17c4.31,0,8.11-1.67,8.11-6.09,0-4.2-3.77-5.88-8.5-5.88h-3.25Z"/><path d="M296.09,172.24c0,11.14-7.89,16.23-16.06,16.23-8.87,0-15.74-5.86-15.74-15.71s6.49-16.15,16.28-16.15C289.9,156.61,296.09,163,296.09,172.24Zm-22,.31c0,5.2,2.2,9.15,6.24,9.15,3.7,0,6-3.7,6-9.2,0-4.5-1.74-9.12-6-9.12C275.78,163.38,274.05,168,274.05,172.55Z"/><path d="M297.29,143.56h9.49v44.23h-9.49Z"/><path d="M319.51,148.84c0,2.63-1.94,4.73-5.1,4.73a4.75,4.75,0,1,1,5.1-4.73Zm-9.76,38.95V157.3h9.49v30.49Z"/><path d="M329.21,157.3l4.1,14.18c.74,2.57,1.27,5,1.75,7.41h.2c.47-2.52,1-4.79,1.69-7.41l3.91-14.18h10l-11.35,30.49H330L318.93,157.3Z"/><path d="M367.83,187.79l-.56-3h-.2a11,11,0,0,1-8.71,3.71c-6.2,0-9.85-4.46-9.85-9.33,0-7.94,7.1-11.7,17.89-11.69v-.39c0-1.62-.87-3.93-5.58-3.92a17.47,17.47,0,0,0-8.4,2.27l-1.75-6.06a24.57,24.57,0,0,1,11.85-2.74c10.15,0,13.36,6,13.36,13.16V180.4a44.43,44.43,0,0,0,.48,7.39Zm-1.15-14.42c-5,0-8.84,1.17-8.84,4.8a3.42,3.42,0,0,0,3.76,3.65,5.2,5.2,0,0,0,4.91-3.5,6.15,6.15,0,0,0,.17-1.62Z"/><path d="M378.7,167.35c0-4.48-.09-7.43-.25-10h8.14l.35,5.64h.23a8.92,8.92,0,0,1,8.23-6.33,8.34,8.34,0,0,1,2,.18v8.91a12,12,0,0,0-2.56-.26c-3.48,0-5.86,1.84-6.5,4.81a11.2,11.2,0,0,0-.17,2.11v15.43H378.7Z"/><path d="M407.45,148.84c0,2.63-1.93,4.73-5.09,4.73a4.75,4.75,0,1,1,5.09-4.73Zm-9.75,38.95V157.3h9.49v30.49Z"/><path d="M427.44,187.79l-.56-3h-.2a11,11,0,0,1-8.71,3.71c-6.21,0-9.86-4.46-9.86-9.33,0-7.94,7.11-11.7,17.9-11.69v-.39c0-1.62-.88-3.93-5.59-3.92a17.53,17.53,0,0,0-8.4,2.27l-1.74-6.06a24.54,24.54,0,0,1,11.85-2.74c10.14,0,13.36,6,13.36,13.16V180.4a44.43,44.43,0,0,0,.48,7.39Zm-1.15-14.42c-5,0-8.84,1.17-8.84,4.8a3.41,3.41,0,0,0,3.76,3.65,5.17,5.17,0,0,0,4.9-3.5,5.76,5.76,0,0,0,.18-1.62Z"/><path d="M438.31,167c0-3.8-.12-7-.25-9.74h8.22l.44,4.22h.19a11.06,11.06,0,0,1,9.43-4.91c6.22,0,10.91,4.16,10.91,13.13v18h-9.49v-16.9c0-3.93-1.41-6.62-4.83-6.62a5.12,5.12,0,0,0-4.8,3.58,6.85,6.85,0,0,0-.33,2.34v17.6h-9.49Z"/><path d="M500.2,172.24c0,11.14-7.89,16.23-16.06,16.23-8.87,0-15.75-5.86-15.75-15.71s6.49-16.15,16.29-16.15C494,156.61,500.2,163,500.2,172.24Zm-22,.31c0,5.2,2.2,9.15,6.24,9.15,3.7,0,6-3.7,6-9.2,0-4.5-1.73-9.12-6-9.12C479.89,163.38,478.16,168,478.16,172.55Z"/><path d="M256.36,189.37v32.3c0,2.38.09,5.05.22,6.89h-4.31l-.25-4.62h-.13a9.76,9.76,0,0,1-9,5.22c-6.47,0-11.46-5.46-11.46-13.56,0-8.92,5.49-14.34,12-14.34,4.1,0,6.86,1.92,8.06,4.05h.11V189.37Zm-4.82,23.36a9.79,9.79,0,0,0-.21-2.08,7.17,7.17,0,0,0-7-5.58c-5,0-8,4.4-8,10.27,0,5.42,2.7,9.92,7.93,9.92a7.33,7.33,0,0,0,7.1-5.83,8,8,0,0,0,.24-2.08Z"/><path d="M263,216.09c.1,6.56,4.26,9.26,9.14,9.26a18.06,18.06,0,0,0,7.39-1.36l.85,3.45a21.66,21.66,0,0,1-8.91,1.7c-8.2,0-13.13-5.47-13.13-13.47s4.77-14.41,12.56-14.41c8.71,0,11,7.64,11,12.55a11.66,11.66,0,0,1-.17,2.28Zm14.21-3.49c.05-3.06-1.25-7.86-6.7-7.86-5,0-7.06,4.48-7.45,7.86Z"/><path d="M314.86,228.56l-12.18-37.2h5.22l5.78,18.34c1.59,5,3,9.55,4,13.88h.13c1-4.3,2.56-9,4.23-13.82l6.29-18.4h5.14l-13.29,37.2Z"/><path d="M339,216.09c.09,6.56,4.26,9.26,9.13,9.26a18,18,0,0,0,7.39-1.36l.85,3.45a21.57,21.57,0,0,1-8.9,1.7c-8.2,0-13.13-5.47-13.13-13.47s4.76-14.41,12.56-14.41c8.7,0,11,7.64,11,12.55a11.66,11.66,0,0,1-.17,2.28Zm14.2-3.49c.05-3.06-1.25-7.86-6.69-7.86-5,0-7.07,4.48-7.45,7.86Z"/><path d="M363,209.08c0-2.79-.09-5-.22-7.21h4.29l.27,4.39h.13a9.85,9.85,0,0,1,8.83-5c3.66,0,9.4,2.21,9.4,11.37v15.93h-4.83V213.17c0-4.32-1.62-7.93-6.17-7.93a7,7,0,0,0-6.54,5,7.57,7.57,0,0,0-.33,2.25v16.09H363Z"/><path d="M395.34,216.09c.09,6.56,4.26,9.26,9.13,9.26a18,18,0,0,0,7.39-1.36l.86,3.45a21.66,21.66,0,0,1-8.91,1.7c-8.2,0-13.13-5.47-13.13-13.47s4.76-14.41,12.56-14.41c8.7,0,11,7.64,11,12.55a11.66,11.66,0,0,1-.17,2.28Zm14.2-3.49c0-3.06-1.25-7.86-6.69-7.86-5,0-7.07,4.48-7.45,7.86Z"/><path d="M416.24,225.73,428.31,210c1.19-1.49,2.27-2.76,3.51-4.18v-.11h-14.5v-3.88h20.39l0,3-11.93,15.51c-1.14,1.44-2.24,2.82-3.43,4.15v.12h15.59v3.88H416.24Z"/><path d="M464.23,221.25c0,2.8.09,5.2.22,7.31h-4.29l-.26-4.37h-.13a10,10,0,0,1-8.84,5c-4.17,0-9.19-2.34-9.19-11.69v-15.6h4.83v14.74c0,5.09,1.59,8.55,6,8.55A7.07,7.07,0,0,0,459,220.7a7.42,7.42,0,0,0,.44-2.48V201.87h4.83Z"/><path d="M474.05,216.09c.09,6.56,4.26,9.26,9.13,9.26a18,18,0,0,0,7.39-1.36l.86,3.45a21.66,21.66,0,0,1-8.91,1.7c-8.2,0-13.13-5.47-13.13-13.47s4.76-14.41,12.56-14.41c8.7,0,11,7.64,11,12.55a11.66,11.66,0,0,1-.17,2.28Zm14.21-3.49c0-3.06-1.26-7.86-6.7-7.86-5,0-7.07,4.48-7.45,7.86Z"/><path d="M498,189.37h4.83v39.19H498Z"/><path d="M524.82,228.56l-.42-3.37h-.15a9.94,9.94,0,0,1-8.17,4c-5.39,0-8.15-3.82-8.15-7.65,0-6.47,5.73-10,16-9.95V211c0-2.17-.61-6.19-6.07-6.16a13,13,0,0,0-7,2l-1.1-3.23a16.74,16.74,0,0,1,8.81-2.34c8.16,0,10.15,5.58,10.15,10.92v10a41.76,41.76,0,0,0,.4,6.39Zm-.75-13.63c-5.25-.11-11.27.83-11.27,6a4.27,4.27,0,0,0,4.53,4.65,6.69,6.69,0,0,0,6.51-4.47,5,5,0,0,0,.23-1.53Z"/><path class="cls-53" d="M2501.39,229.69c-1.65.82-5.51,1.76-10.42,1.76-14.12,0-21.4-8.82-21.4-20.44,0-13.9,10-21.6,22.27-21.6,4.79,0,8.44.94,10,1.81l-1.88,7.29a19.4,19.4,0,0,0-7.75-1.53c-7.27,0-13,4.43-13,13.49,0,8.18,4.82,13.31,13,13.31a22,22,0,0,0,7.7-1.32Z"/><path class="cls-53" d="M2517.4,220.35l-2.87,10.47H2505l12.45-40.77h12.06l12.69,40.77h-9.93l-3.14-10.47Zm10.36-6.87-2.54-8.66c-.7-2.41-1.42-5.47-2-7.85H2523c-.59,2.4-1.21,5.49-1.86,7.86l-2.44,8.65Z"/><path class="cls-53" d="M2548.12,190.61a77.81,77.81,0,0,1,12.25-.88c6,0,10.28.92,13.19,3.23a10.37,10.37,0,0,1,3.77,8.55,10.82,10.82,0,0,1-7.2,10v.19c2.83,1.14,4.42,3.84,5.45,7.59,1.26,4.61,2.49,9.93,3.29,11.51h-9.44a52.23,52.23,0,0,1-2.8-9.51c-1.13-5.09-2.85-6.45-6.64-6.5h-2.74v16h-9.13Zm9.13,17.53h3.61c4.57,0,7.31-2.33,7.31-5.87,0-3.74-2.56-5.64-6.77-5.67a19.37,19.37,0,0,0-4.15.31Z"/><path class="cls-53" d="M2593.91,220.35,2591,230.82h-9.53L2594,190.05H2606l12.69,40.77h-9.93l-3.13-10.47Zm10.36-6.87-2.54-8.66c-.7-2.41-1.42-5.47-2.05-7.85h-.13c-.59,2.4-1.21,5.49-1.86,7.86l-2.44,8.65Z"/><path class="cls-53" d="M2624.63,190.61a73.92,73.92,0,0,1,11.89-.88c5.62,0,9.08.56,12.06,2.29a8.87,8.87,0,0,1,4.86,8c0,3.58-2.1,7-6.7,8.67v.15c4.66,1.22,8.12,4.77,8.12,10a10.8,10.8,0,0,1-4.24,8.66c-3,2.4-7.91,3.71-16,3.71a71.55,71.55,0,0,1-10-.6Zm9.13,15.61h3c4.88,0,7.43-2,7.43-5.06s-2.35-4.73-6.51-4.73a19.18,19.18,0,0,0-3.91.29Zm0,18a22.75,22.75,0,0,0,3.54.16c4.18,0,7.86-1.62,7.86-5.91,0-4.08-3.65-5.71-8.25-5.71h-3.15Z"/><path class="cls-53" d="M2698.93,210c0,13.38-8.08,21.46-20,21.46-12.08,0-19.2-9.14-19.2-20.77,0-12.19,7.84-21.33,19.85-21.33C2692.09,189.38,2698.93,198.75,2698.93,210Zm-29.45.52c0,8,3.76,13.61,9.91,13.61s9.79-5.89,9.79-13.81c0-7.35-3.47-13.63-9.81-13.63S2669.48,202.61,2669.48,210.54Z"/><path class="cls-53" d="M2705.49,190.61a74.06,74.06,0,0,1,11.9-.88c5.62,0,9.08.56,12.06,2.29a8.86,8.86,0,0,1,4.85,8c0,3.58-2.1,7-6.69,8.67v.15c4.65,1.22,8.12,4.77,8.12,10a10.8,10.8,0,0,1-4.24,8.66c-3,2.4-7.92,3.71-16,3.71a71.72,71.72,0,0,1-10-.6Zm9.14,15.61h3c4.88,0,7.43-2,7.43-5.06s-2.35-4.73-6.51-4.73a19.1,19.1,0,0,0-3.91.29Zm0,18a22.68,22.68,0,0,0,3.53.16c4.19,0,7.87-1.62,7.87-5.91,0-4.08-3.66-5.71-8.25-5.71h-3.15Z"/><path class="cls-53" d="M2779.79,210c0,13.38-8.07,21.46-20,21.46-12.09,0-19.2-9.14-19.2-20.77,0-12.19,7.84-21.33,19.84-21.33C2773,189.38,2779.79,198.75,2779.79,210Zm-29.45.52c0,8,3.77,13.61,9.92,13.61s9.79-5.89,9.79-13.81c0-7.35-3.47-13.63-9.82-13.63S2750.34,202.61,2750.34,210.54Z"/><path class="cls-53" d="M2471.46,159.52a37,37,0,0,1,5.89-.43c2.79,0,4.5.27,6,1.13a4.38,4.38,0,0,1,2.4,4,4.57,4.57,0,0,1-3.31,4.3v.08a5,5,0,0,1,4,4.95,5.36,5.36,0,0,1-2.1,4.29c-1.49,1.19-3.92,1.83-8,1.83a35.41,35.41,0,0,1-4.93-.29Zm4.52,7.74h1.48c2.42,0,3.69-1,3.69-2.51s-1.17-2.34-3.23-2.34a9.6,9.6,0,0,0-1.94.14Zm0,8.93a10.45,10.45,0,0,0,1.76.09c2.07,0,3.89-.81,3.89-2.93s-1.81-2.83-4.09-2.83H2476Z"/><path class="cls-53" d="M2510,174.26l-1.43,5.18h-4.72l6.17-20.19h6l6.29,20.19h-4.92l-1.55-5.18Zm5.13-3.4-1.26-4.3c-.34-1.19-.7-2.7-1-3.89h-.07c-.29,1.19-.6,2.72-.92,3.9l-1.21,4.29Z"/><path class="cls-53" d="M2544.65,163.08h-5.45v-3.83h15.55v3.83h-5.53v16.36h-4.57Z"/><path class="cls-53" d="M2577.63,174.26l-1.43,5.18h-4.72l6.16-20.19h6l6.29,20.19H2585l-1.56-5.18Zm5.13-3.4-1.26-4.3c-.35-1.19-.7-2.7-1-3.89h-.07c-.29,1.19-.6,2.72-.92,3.9l-1.21,4.29Z"/><path class="cls-53" d="M2608.37,159.25h4.57v16.37h8v3.82h-12.61Z"/><path class="cls-53" d="M2639.45,159.25H2644v16.37h8v3.82h-12.61Z"/><path class="cls-53" d="M2675.22,174.26l-1.43,5.18h-4.72l6.16-20.19h6l6.29,20.19h-4.92l-1.55-5.18Zm5.13-3.4-1.26-4.3c-.35-1.19-.7-2.7-1-3.89H2678c-.29,1.19-.6,2.72-.92,3.9l-1.21,4.29Z"/><path class="cls-53" d="M2727.78,159.52a40.61,40.61,0,0,1,6.16-.43c3.83,0,6.34.71,8.27,2.17,2.1,1.56,3.42,4,3.42,7.6,0,3.87-1.4,6.54-3.34,8.18-2.13,1.77-5.38,2.61-9.32,2.61a39.89,39.89,0,0,1-5.19-.29Zm4.56,16.49a10.94,10.94,0,0,0,1.6.08c4.13,0,6.85-2.25,6.85-7.08,0-4.2-2.45-6.41-6.37-6.41a9.92,9.92,0,0,0-2.08.18Z"/><path class="cls-53" d="M2776.41,170.9H2769v4.8h8.31v3.74h-12.88V159.25h12.44V163H2769v4.2h7.43Z"/></svg>