<?xml version="1.0" standalone="no"?>
<!DOCTYPE svg PUBLIC "-//W3C//DTD SVG 20010904//EN"
 "http://www.w3.org/TR/2001/REC-SVG-20010904/DTD/svg10.dtd">
<svg version="1.0" xmlns="http://www.w3.org/2000/svg"
 width="50.000000pt" height="50.000000pt" viewBox="0 0 50.000000 50.000000"
 preserveAspectRatio="xMidYMid meet">

<g transform="translate(0.000000,50.000000) scale(0.100000,-0.100000)"
fill="#000000" stroke="none">
<path d="M155 456 c-60 -28 -87 -56 -114 -116 -27 -60 -26 -123 3 -185 43 -91
122 -138 229 -134 34 1 76 -4 93 -11 78 -33 157 46 124 124 -7 17 -12 59 -11
93 2 68 -21 138 -62 182 -33 36 -115 71 -167 71 -26 0 -66 -10 -95 -24z m95
-82 l0 -85 -32 22 c-18 13 -52 37 -75 55 -40 29 -41 32 -25 47 24 21 82 46
110 47 21 0 22 -3 22 -86z m24 -100 c17 3 43 9 59 12 44 10 31 -12 -15 -25
-24 -7 -49 -18 -57 -24 -10 -8 -16 -8 -25 4 -6 8 -35 32 -64 53 -28 21 -50 42
-47 47 4 5 31 -10 62 -32 46 -34 60 -40 87 -35z m181 -119 c50 -49 15 -135
-55 -135 -41 0 -80 39 -80 80 0 70 86 105 135 55z"/>
<path d="M390 135 c0 -20 -5 -25 -25 -25 -14 0 -25 -4 -25 -10 0 -5 11 -10 25
-10 20 0 25 -5 25 -25 0 -14 5 -25 10 -25 6 0 10 11 10 25 0 20 5 25 25 25 14
0 25 5 25 10 0 6 -11 10 -25 10 -20 0 -25 5 -25 25 0 14 -4 25 -10 25 -5 0
-10 -11 -10 -25z"/>
</g>
</svg>
