<?xml version="1.0" encoding="UTF-8"?>
<svg id="Layer_2" data-name="Layer 2" xmlns="http://www.w3.org/2000/svg" viewBox="0 0 481.45 363.67">
  <g id="Layer_1-2" data-name="Layer 1">
    <g>
      <path d="M480.7,102.17c-8.45-37.21-25.84-68.6-56.17-92.69-13.3-10.56-26.18-12.43-41.29-4.97-54.38,26.84-100.72,65.13-150.87,102.6,32.51,22.23,53.05,50.2,63.52,87.13,20.91-10.83,38.8-20.51,57.05-29.46,37.41-18.35,76.31-32.96,116.42-44.15,10.5-2.93,13.75-7.88,11.35-18.46Z"/>
      <path d="M411.32,233.27c-20.1-4.42-36.18-7.53-52.01-11.56-16.65-4.23-33.87-7.59-49.4-14.54-17.09-7.66-29.51-3.4-42.59,7.57-13.74,11.52-14.39,11.12-6.67,26.8,15.06,30.57,36.06,56.7,60.98,79.72,3.59,3.32,6.66,9.24,13.44,6.12q2.5-24.61,25.74-27.1c.79-.09,1.36-2.2,2.58-4.34-14.47-13.79-31.05-26.08-42.5-43.51,25.37,8.54,48.41,22.8,76.04,24.58-.89-11.48-11.85-16.65-10.66-27.79,6.8-4.33,13.92-8.87,25.04-15.95Z"/>
      <path d="M200.76,147.76c-5.49-6.19-10.39-8.34-17.85-2.5-37.52,29.36-81.76,45.9-124.72,64.91-14.3,6.33-28.16,13.67-42.04,20.9-11.55,6.02-17.3,15.57-15.96,29.04,2.51,31.27,14.71,58.99,33.05,84.03,14.36,19.61,27.47,23.18,51.42,16.32,16.04-4.59,30.25-12.82,44.03-21.89,43.68-28.75,76.92-68.98,114.55-104.39,4.92-4.63,4.51-9.51,2.14-14.9-11.42-26-25.68-50.19-44.62-71.53Z"/>
    </g>
  </g>
</svg>