<?xml version="1.0" standalone="no"?>
<!DOCTYPE svg PUBLIC "-//W3C//DTD SVG 20010904//EN"
 "http://www.w3.org/TR/2001/REC-SVG-20010904/DTD/svg10.dtd">
<svg version="1.0" xmlns="http://www.w3.org/2000/svg"
 width="100.000000pt" height="100.000000pt" viewBox="0 0 100.000000 100.000000"
 preserveAspectRatio="xMidYMid meet">

<g transform="translate(0.000000,100.000000) scale(0.100000,-0.100000)"
fill="#000000" stroke="none">
<path d="M130 870 c-19 -19 -20 -33 -20 -360 l0 -340 253 0 c252 0 254 0 275
23 12 13 22 26 22 30 0 4 -109 8 -242 9 l-243 3 -3 248 -2 247 330 0 330 0 0
-162 0 -162 30 29 30 29 0 193 c0 180 -1 194 -20 213 -19 19 -33 20 -370 20
-337 0 -351 -1 -370 -20z"/>
<path d="M300 610 c0 -27 3 -30 30 -30 27 0 30 3 30 30 0 27 -3 30 -30 30 -27
0 -30 -3 -30 -30z"/>
<path d="M420 610 l0 -30 140 0 140 0 0 30 0 30 -140 0 -140 0 0 -30z"/>
<path d="M300 485 c0 -32 2 -35 30 -35 28 0 30 3 30 35 0 32 -2 35 -30 35 -28
0 -30 -3 -30 -35z"/>
<path d="M427 513 c-4 -3 -7 -19 -7 -35 l0 -28 140 0 140 0 0 35 0 35 -133 0
c-74 0 -137 -3 -140 -7z"/>
<path d="M903 416 l-28 -25 37 -37 37 -38 26 24 c32 30 32 53 -1 79 -34 26
-37 26 -71 -3z"/>
<path d="M300 360 c0 -27 3 -30 30 -30 27 0 30 3 30 30 0 27 -3 30 -30 30 -27
0 -30 -3 -30 -30z"/>
<path d="M420 360 l0 -30 140 0 140 0 0 30 0 30 -140 0 -140 0 0 -30z"/>
<path d="M733 248 c-68 -68 -109 -119 -121 -149 -48 -112 38 -82 186 64 56 56
102 105 102 110 0 11 -50 77 -59 77 -3 0 -52 -46 -108 -102z"/>
</g>
</svg>
