<?xml version="1.0" standalone="no"?>
<!DOCTYPE svg PUBLIC "-//W3C//DTD SVG 20010904//EN"
 "http://www.w3.org/TR/2001/REC-SVG-20010904/DTD/svg10.dtd">
<svg version="1.0" xmlns="http://www.w3.org/2000/svg"
 width="100.000000pt" height="100.000000pt" viewBox="0 0 100.000000 100.000000"
 preserveAspectRatio="xMidYMid meet">

<g transform="translate(0.000000,100.000000) scale(0.100000,-0.100000)"
fill="#000000" stroke="none">
<path d="M458 793 l-3 -168 -89 -5 c-80 -5 -91 -7 -107 -30 -13 -18 -29 -91
-54 -254 -19 -126 -35 -235 -35 -242 0 -12 58 -14 330 -14 272 0 330 2 330 14
0 7 -16 116 -35 242 -25 163 -41 236 -54 254 -16 23 -27 25 -107 30 l-89 5 -3
168 -2 167 -40 0 -40 0 -2 -167z m222 -262 c0 -5 3 -23 6 -40 l7 -31 -192 0
c-105 0 -191 4 -191 9 0 5 3 23 6 40 l7 31 178 0 c99 0 179 -4 179 -9z m38
-244 c18 -126 21 -118 -44 -115 l-57 3 -17 55 -17 55 -8 -57 -7 -58 -63 0 -62
0 -16 38 -15 37 -1 -37 -1 -38 -70 0 c-81 0 -76 -9 -58 117 l12 83 206 0 206
0 12 -83z"/>
</g>
</svg>
