<?xml version="1.0" standalone="no"?>
<!DOCTYPE svg PUBLIC "-//W3C//DTD SVG 20010904//EN"
 "http://www.w3.org/TR/2001/REC-SVG-20010904/DTD/svg10.dtd">
<svg version="1.0" xmlns="http://www.w3.org/2000/svg"
 width="512.000000pt" height="512.000000pt" viewBox="0 0 512.000000 512.000000"
 preserveAspectRatio="xMidYMid meet">

<g transform="translate(0.000000,512.000000) scale(0.100000,-0.100000)"
fill="#000000" stroke="none">
<path d="M2110 4775 c-437 -66 -836 -259 -1143 -554 -396 -380 -620 -875 -644
-1421 -24 -569 197 -1138 597 -1541 528 -530 1293 -739 2010 -548 249 66 492
183 693 332 l69 50 -41 40 -40 41 -83 -38 c-46 -21 -159 -76 -253 -121 -93
-46 -211 -97 -261 -113 -692 -228 -1433 -61 -1948 437 -298 290 -485 638 -562
1052 -21 113 -30 439 -15 554 44 335 155 622 340 885 184 260 415 459 702 604
207 104 379 158 609 192 170 25 469 15 638 -20 371 -79 688 -246 955 -505 303
-293 485 -642 563 -1076 22 -124 25 -458 5 -580 -36 -222 -104 -424 -215 -644
-36 -69 -81 -163 -102 -209 l-37 -83 38 -39 c21 -21 42 -37 46 -35 18 12 153
222 203 316 112 214 190 459 222 702 20 152 15 476 -10 610 -164 880 -811
1533 -1681 1698 -144 28 -511 35 -655 14z"/>
<path d="M2264 4479 c-560 -39 -1082 -360 -1374 -845 -313 -517 -337 -1161
-65 -1704 333 -664 1057 -1050 1792 -955 113 15 310 60 326 75 4 3 -18 12 -50
19 -285 63 -550 292 -662 572 -52 130 -65 199 -65 359 -1 169 18 255 86 403
l41 88 -74 75 -73 74 -393 0 -393 0 0 80 0 80 393 0 392 0 88 88 87 87 0 473
0 472 80 0 80 0 0 -473 0 -473 74 -73 75 -74 90 41 c140 66 239 86 406 86 166
-1 284 -27 415 -93 117 -58 165 -94 265 -196 125 -127 206 -271 245 -437 l17
-73 16 55 c89 310 100 589 35 889 -11 52 -35 140 -54 195 -261 758 -996 1241
-1800 1185z m216 -239 l0 -80 -80 0 -80 0 0 80 0 80 80 0 80 0 0 -80z m-1097
-502 l-57 -58 -58 57 -58 57 57 58 57 58 58 -57 58 -57 -57 -58z m2150 0 l-57
-58 -58 57 -58 57 57 58 57 58 58 -57 58 -57 -57 -58z m-2573 -1018 l0 -80
-80 0 -80 0 0 80 0 80 80 0 80 0 0 -80z m3040 0 l0 -80 -80 0 -80 0 0 80 0 80
80 0 80 0 0 -80z m-2617 -1132 l-57 -58 -58 57 -58 57 57 58 57 58 58 -57 58
-57 -57 -58z"/>
<path d="M2340 2775 l-54 -55 49 -50 49 -50 58 57 58 57 -47 48 c-26 26 -50
48 -53 48 -3 0 -30 -25 -60 -55z"/>
<path d="M2970 2786 c-416 -89 -694 -469 -642 -880 58 -458 489 -778 934 -692
443 86 731 508 642 944 -61 301 -285 534 -594 619 -78 21 -260 26 -340 9z
m285 -161 c237 -50 440 -253 490 -491 96 -452 -307 -855 -759 -759 -238 50
-441 253 -491 490 -95 454 306 855 760 760z"/>
<path d="M3001 2464 c-253 -68 -410 -331 -346 -579 67 -256 329 -415 580 -350
256 67 415 329 350 578 -67 259 -333 419 -584 351z"/>
<path d="M3797 1322 l-57 -58 58 -57 58 -57 57 58 57 58 -58 57 -58 57 -57
-58z"/>
<path d="M4017 1092 l-107 -107 58 -58 57 -57 113 113 112 112 -53 53 c-29 28
-57 52 -62 52 -6 0 -59 -48 -118 -108z"/>
<path d="M4252 867 l-112 -112 225 -225 225 -225 112 113 113 112 -225 225
-225 225 -113 -113z"/>
</g>
</svg>
